<?xml version="1.0" encoding="utf-8"?>
<!-- Generator: Adobe Illustrator 23.0.2, SVG Export Plug-In . SVG Version: 6.00 Build 0)  -->
<svg version="1.1" xmlns="http://www.w3.org/2000/svg" xmlns:xlink="http://www.w3.org/1999/xlink" x="0px" y="0px"
	 viewBox="0 0 198 54" style="enable-background:new 0 0 198 54;" xml:space="preserve">
<style type="text/css">
	.st0{fill:#333132;}
	.st1{fill:#FFC600;}
	.st2{fill:#FBFCD4;}
	.st3{fill:#FFFFFF;}
	.st4{fill:#FFDD03;}
	.st5{fill:#151515;}
	.st6{fill:#FFFFFF;stroke:#151515;stroke-miterlimit:10;}
	.st7{fill:none;stroke:#151515;stroke-miterlimit:10;}
	.st8{fill:#FBC403;}
	.st9{font-family:'Roboto-Light';}
	.st10{font-size:29.163px;}
	.st11{filter:url(#Adobe_OpacityMaskFilter);}
	.st12{opacity:0.4;mask:url(#SVGID_1_);}
	.st13{filter:url(#Adobe_OpacityMaskFilter_1_);}
	.st14{opacity:0.4;mask:url(#SVGID_4_);}
	.st15{filter:url(#Adobe_OpacityMaskFilter_2_);}
	.st16{opacity:0.4;mask:url(#SVGID_7_);}
</style>
<g id="Home">
</g>
<g id="_x33_rd">
</g>
<g id="_x32_nd">
	<rect id="Background_1_" x="-71.2" y="-513.1" class="st0" width="824.4" height="1549.6"/>
	<g id="cool_abstract_thingy_2_">
	</g>
	<g>
		<path class="st1" d="M171,1c14.3,0,26,11.7,26,26s-11.7,26-26,26H27C12.7,53,1,41.3,1,27S12.7,1,27,1H171 M171,0H27
			C12.1,0,0,12.1,0,27s12.1,27,27,27h144c14.9,0,27-12.1,27-27S185.9,0,171,0L171,0z"/>
	</g>
	<g id="old_school">
		<g id="Line_1_">
			<rect x="54.4" y="42.9" class="st2" width="27.3" height="1.9"/>
		</g>
		<g>
			<text transform="matrix(1 0 0 1 54.4189 34.0958)" class="st3 st9 st10">RAP.io</text>
		</g>
	</g>
</g>
<g id="Assets">
</g>
</svg>
