<?xml version="1.0" encoding="utf-8"?>
<!-- Generator: Adobe Illustrator 23.0.2, SVG Export Plug-In . SVG Version: 6.00 Build 0)  -->
<svg version="1.1" xmlns="http://www.w3.org/2000/svg" xmlns:xlink="http://www.w3.org/1999/xlink" x="0px" y="0px"
	 viewBox="0 0 335.2 58.8" style="enable-background:new 0 0 335.2 58.8;" xml:space="preserve">
<style type="text/css">
	.st0{fill:#333132;}
	.st1{fill:#FFC600;}
	.st2{fill:#FBFCD4;}
	.st3{fill:#FFFFFF;}
	.st4{fill:#FFDD03;}
	.st5{fill:#151515;}
	.st6{fill:#FFFFFF;stroke:#151515;stroke-miterlimit:10;}
	.st7{fill:none;stroke:#151515;stroke-miterlimit:10;}
	.st8{fill:#FBC403;}
	.st9{font-family:'Roboto-Light';}
	.st10{font-size:48px;}
	.st11{filter:url(#Adobe_OpacityMaskFilter);}
	.st12{opacity:0.4;mask:url(#SVGID_1_);}
	.st13{filter:url(#Adobe_OpacityMaskFilter_1_);}
	.st14{opacity:0.4;mask:url(#SVGID_4_);}
	.st15{filter:url(#Adobe_OpacityMaskFilter_2_);}
	.st16{opacity:0.4;mask:url(#SVGID_7_);}
</style>
<g id="Home">
	<rect id="Background" x="-1359" y="-228.9" class="st0" width="801" height="1432.7"/>
	<g id="cool_abstract_thingy">
		
			<rect x="-1575.7" y="1162.3" transform="matrix(0.7071 0.7071 -0.7071 0.7071 764.3399 1287.3192)" class="st1" width="807.9" height="807.9"/>
		<circle class="st2" cx="-886.1" cy="1566.3" r="202"/>
		
			<rect x="-810.6" y="1098.4" transform="matrix(0.7071 0.7071 -0.7071 0.7071 654.1909 886.7428)" class="st3" width="134.7" height="269.3"/>
		
			<rect x="-905.8" y="1003.2" transform="matrix(0.7071 0.7071 -0.7071 0.7071 558.9767 926.1818)" class="st2" width="134.7" height="269.3"/>
		
			<rect x="-1810.4" y="507.4" transform="matrix(0.7071 0.7071 -0.7071 0.7071 -8.9252 1440.2905)" class="st2" width="134.7" height="404"/>
		
			<rect x="-1310.5" y="354.7" transform="matrix(0.7071 0.7071 -0.7071 0.7071 53.3264 1051.9663)" class="st1" width="134.7" height="471.3"/>
		
			<rect x="-620.2" y="1098.4" transform="matrix(0.7071 0.7071 -0.7071 0.7071 709.9661 752.0896)" class="st4" width="134.7" height="269.3"/>
		<circle class="st0" cx="-695.7" cy="1375.9" r="67.3"/>
		
			<rect x="-735.1" y="860.4" transform="matrix(0.7071 0.7071 -0.7071 0.7071 527.7058 716.0339)" class="st5" width="269.3" height="269.3"/>
		
			<rect x="-1116" y="860.4" transform="matrix(0.7071 0.7071 -0.7071 0.7071 416.1554 985.3403)" class="st5" width="269.3" height="269.3"/>
		
			<rect x="-1592.1" y="384.3" transform="matrix(0.7071 0.7071 -0.7071 0.7071 -59.9156 1182.5354)" class="st5" width="269.3" height="269.3"/>
		
			<rect x="-1401.6" y="495.8" transform="matrix(0.7071 0.7071 -0.7071 0.7071 265.166 1159.4326)" class="st2" width="269.3" height="807.9"/>
		
			<rect x="-1877.7" y="591.1" transform="matrix(0.7071 0.7071 -0.7071 0.7071 193.0547 1523.9532)" class="st5" width="269.3" height="807.9"/>
		<circle class="st4" cx="-790.9" cy="804.6" r="134.7"/>
		<circle class="st4" cx="-1647.8" cy="1280.7" r="134.7"/>
		<circle class="st4" cx="-1933.5" cy="899.8" r="67.3"/>
	</g>
	<text transform="matrix(1 0 0 1 -1217.3203 248.0625)" class="st3 st9 st10">welcome to</text>
	<g>
		<g>
			<path class="st5" d="M-846.3-42.2C-846.3-42.2-846.3-42.2-846.3-42.2C-846.3-42.2-846.3-42.2-846.3-42.2c0.2-2.9,0.3-5.8,0.3-8.8
				c0-59.7-48.3-108-108-108s-108,48.3-108,108c0,0.6,0,1.3,0,1.9c0,1.5,0.1,3.1,0.2,4.6v0c0,0.2,0,0.5,0,0.7v86.5
				c0,3.8,3.1,7,6.9,7c3.4,0,6.2-2.5,6.8-5.7c0.1-0.4,0.1-0.8,0.1-1.3V2.5V2.4c0,0,0,0,0,0c0.6-2.9,3.2-5.2,6.4-5.2
				c1.8,0,3.4,0.7,4.6,1.9c0.6,0.6,1.1,1.4,1.5,2.3v18.5c0,0,0,0,0.1,0.1v51.2c0,0.8,0.2,1.7,0.4,2.4c1,2.7,3.6,4.5,6.6,4.5
				c3.9,0,7-3.1,7-7V33.4c0,0,0,0,0,0v-34c0-3.8,3.1-7,7-7c1.9,0,3.6,0.8,4.9,2c1.3,1.3,2,3,2,4.9v23.5c0,0.2,0,0.3,0,0.5v43.7
				c0,3.8,3.1,6.9,6.9,6.9h0.4c3.8,0,6.9-3.1,6.9-6.9V23.4c0-0.2,0-0.4,0-0.6v-1.6c0-3.3,2.7-6.1,6.1-6.1c1.7,0,3.2,0.7,4.3,1.8
				c1.1,1.1,1.8,2.6,1.8,4.3v32.4v49c0,3.4,3.2,6.1,7.1,6.1c3.9,0,7.1-2.7,7.1-6.1V35.1c0.3-3.6,3.3-6.3,6.9-6.3
				c1.9,0,3.6,0.8,4.9,2c1,1,1.7,2.4,1.9,3.9v62.4c0,3.8,3.1,6.9,6.9,6.9h1c3.8,0,6.9-3.1,6.9-6.9V53.8c0.3-3.6,3.3-6.4,6.9-6.4
				c1.9,0,3.7,0.8,4.9,2c0.9,0.9,1.5,2,1.8,3.3v56.7c0,3.8,3.1,6.9,6.9,6.9h0.9c3.8,0,6.9-3.1,6.9-6.9V19.7c0.3-3.5,3.3-6.3,6.9-6.3
				c1.9,0,3.6,0.8,4.9,2c1.3,1.3,2,3,2,4.9v7.2c0,0.3-0.1,0.7-0.1,1v113.9c0,3.8,3.1,6.9,6.9,6.9h0.4c3.8,0,6.9-3.1,6.9-6.9V29.3
				c0.1-0.1,0.1-0.1,0.2-0.2V-8.7c0-5.8,4.7-10.6,10.6-10.6c2.9,0,5.6,1.2,7.5,3.1c1.7,1.7,2.8,3.9,3,6.4v84.9
				c0,3.8,3.1,6.9,6.9,6.9h0.2c3.8,0,6.9-3.1,6.9-6.9V-41.8C-846.3-41.9-846.3-42.1-846.3-42.2C-846.4-42.2-846.4-42.2-846.3-42.2z"
				/>
			<path class="st5" d="M-1055.1,57.2c-3.8,0-6.9,3.1-6.9,6.9v6.9c0,3.8,3.1,6.9,6.9,6.9s6.9-3.1,6.9-6.9v-6.9
				C-1048.1,60.3-1051.2,57.2-1055.1,57.2z"/>
			<path class="st5" d="M-1000.4,77.5L-1000.4,77.5c-3.8,0-6.9,3.1-6.9,6.9v8c0,3.8,3.1,6.9,6.9,6.9h0c3.8,0,6.9-3.1,6.9-6.9v-8
				C-993.4,80.6-996.6,77.5-1000.4,77.5z"/>
			<path class="st5" d="M-1028.6,83.7c-3,0-5.5,1.9-6.5,4.5c-0.3,0.8-0.4,1.6-0.4,2.4v4.2v2.7c0,3.8,3.1,6.9,6.9,6.9
				c3.8,0,7-3.1,7-6.9v-7c0-1.9-0.8-3.7-2-4.9C-1024.9,84.5-1026.6,83.7-1028.6,83.7z"/>
			<path class="st5" d="M-945.7,106.6c-3.8,0-6.9,3.1-6.9,6.9v6.9c0,3.8,3.1,6.9,6.9,6.9c3.8,0,6.9-3.1,6.9-6.9v-6.9
				C-938.7,109.7-941.8,106.6-945.7,106.6z"/>
		</g>
		<path class="st6" d="M-985.8-42.8c-1.8-22.1,5.2-36.2,20.4-43c2-3.3,2.9-7.2,2.6-11.7c0.9-9.5-15.9-4.1-18-0.5
			c-8.1,5.7-16.3,7.7-17.7-1.8l2.7-24.5c-1.7-5.5-5.3-7.8-12.4-4.2c-8.1,7.2-15.3,12.7-18.4,9.2c-11.9,13.9-20.6,29.7-23.5,49.3
			c3.7,1.4,6.5,4.4,6.5,12.1c2.5,19.6,8.3,23.3,17.6,10c11.1-19.7,18.5-20.3,21.7,1.4C-1000.3-29.6-994.4-26.7-985.8-42.8z"/>
		<circle class="st1" cx="-954" cy="-50.9" r="27"/>
		<circle class="st7" cx="-954" cy="-50.9" r="50.3"/>
		<circle class="st7" cx="-954.4" cy="-51.4" r="53.8"/>
		<circle class="st7" cx="-954" cy="-50.9" r="61.2"/>
	</g>
	
		<image style="overflow:visible;" width="1454" height="437" xlink:href="../../../../../../../Puush/ss (2019-03-19 at 11.45.37).png"  transform="matrix(0.1871 0 0 0.1871 -956 194.0625)">
	</image>
	<g id="explore">
		<g>
			<path class="st1" d="M-711,393.1c14.3,0,26,11.7,26,26s-11.7,26-26,26h-218c-14.3,0-26-11.7-26-26s11.7-26,26-26H-711
				 M-711,392.1h-218c-14.9,0-27,12.1-27,27s12.1,27,27,27h218c14.9,0,27-12.1,27-27S-696.1,392.1-711,392.1L-711,392.1z"/>
		</g>
		<text transform="matrix(1 0 0 1 -915.3953 427.2451)" class="st3" style="font-family:'Roboto-Thin'; font-size:28px;">explore the eras</text>
	</g>
	<g id="explore_1_">
		<g>
			<path class="st1" d="M-711,474.1c14.3,0,26,11.7,26,26s-11.7,26-26,26h-218c-14.3,0-26-11.7-26-26s11.7-26,26-26H-711
				 M-711,473.1h-218c-14.9,0-27,12.1-27,27s12.1,27,27,27h218c14.9,0,27-12.1,27-27S-696.1,473.1-711,473.1L-711,473.1z"/>
		</g>
		<text transform="matrix(1 0 0 1 -849.7195 508.2451)" class="st3" style="font-family:'Roboto-Thin'; font-size:28px;">radio</text>
	</g>
	<g id="line">
		<rect x="-1215" y="262.6" class="st2" width="45" height="3.2"/>
	</g>
	<g>
		<g>
			<g>
				<path class="st5" d="M600.3-16.7C600.3-16.7,600.3-16.7,600.3-16.7C600.3-16.7,600.3-16.7,600.3-16.7c0.2-2.2,0.3-4.3,0.3-6.5
					c0-44.1-35.7-79.8-79.8-79.8s-79.8,35.7-79.8,79.8c0,0.5,0,1,0,1.4c0,1.1,0.1,2.3,0.1,3.4v0c0,0.2,0,0.3,0,0.5v64
					c0,2.8,2.3,5.1,5.1,5.1c2.5,0,4.6-1.8,5-4.2c0.1-0.3,0.1-0.6,0.1-0.9V16.3v-0.1c0,0,0,0,0,0c0.5-2.2,2.4-3.8,4.7-3.8
					c1.3,0,2.5,0.5,3.4,1.4c0.5,0.5,0.8,1,1.1,1.7v13.7c0,0,0,0,0,0v37.8c0,0.6,0.1,1.2,0.3,1.8c0.7,2,2.6,3.3,4.8,3.3
					c2.9,0,5.2-2.3,5.2-5.1V39.2c0,0,0,0,0,0V14.1c0-2.8,2.3-5.1,5.1-5.1c1.4,0,2.7,0.6,3.6,1.5c0.9,0.9,1.5,2.2,1.5,3.6v17.3
					c0,0.1,0,0.2,0,0.4v32.3c0,2.8,2.3,5.1,5.1,5.1h0.3c2.8,0,5.1-2.3,5.1-5.1V31.8c0-0.1,0-0.3,0-0.4v-1.2c0-2.5,2-4.5,4.5-4.5
					c1.2,0,2.4,0.5,3.2,1.3c0.8,0.8,1.3,1.9,1.3,3.2v23.9v36.2c0,2.5,2.4,4.5,5.3,4.5c2.9,0,5.3-2,5.3-4.5V40.4
					c0.2-2.6,2.4-4.7,5.1-4.7c1.4,0,2.7,0.6,3.6,1.5c0.8,0.8,1.3,1.8,1.4,2.9v46.1c0,2.8,2.3,5.1,5.1,5.1h0.7c2.8,0,5.1-2.3,5.1-5.1
					v-32c0.2-2.6,2.4-4.7,5.1-4.7c1.4,0,2.7,0.6,3.6,1.5c0.7,0.7,1.1,1.5,1.4,2.4v41.9c0,2.8,2.3,5.1,5.1,5.1h0.7
					c2.8,0,5.1-2.3,5.1-5.1V29.1c0.2-2.6,2.4-4.7,5.1-4.7c1.4,0,2.7,0.6,3.6,1.5c0.9,0.9,1.5,2.2,1.5,3.6v5.3c0,0.2-0.1,0.5-0.1,0.7
					v84.2c0,2.8,2.3,5.1,5.1,5.1h0.3c2.8,0,5.1-2.3,5.1-5.1V36.1c0.1,0,0.1-0.1,0.1-0.1V8.1c0-4.3,3.5-7.8,7.8-7.8
					c2.2,0,4.1,0.9,5.5,2.3c1.2,1.2,2.1,2.9,2.2,4.7V70c0,2.8,2.3,5.1,5.1,5.1h0.1c2.8,0,5.1-2.3,5.1-5.1v-86.4
					C600.3-16.5,600.3-16.6,600.3-16.7C600.3-16.7,600.3-16.7,600.3-16.7z"/>
			</g>
			<g>
				<path class="st5" d="M446,56.8c-2.8,0-5.1,2.3-5.1,5.1v5.1c0,2.8,2.3,5.1,5.1,5.1c2.8,0,5.1-2.3,5.1-5.1v-5.1
					C451.2,59.1,448.9,56.8,446,56.8z"/>
			</g>
			<g>
				<path class="st5" d="M486.4,71.8L486.4,71.8c-2.8,0-5.1,2.3-5.1,5.1v5.9c0,2.8,2.3,5.1,5.1,5.1h0c2.8,0,5.1-2.3,5.1-5.1v-5.9
					C491.6,74.1,489.3,71.8,486.4,71.8z"/>
			</g>
			<g>
				<path class="st5" d="M465.6,76.4c-2.2,0-4.1,1.4-4.8,3.3c-0.2,0.6-0.3,1.2-0.3,1.8v3.1v2c0,2.8,2.3,5.1,5.1,5.1
					c2.8,0,5.1-2.3,5.1-5.1v-5.1c0-1.4-0.6-2.7-1.5-3.6C468.3,77,467,76.4,465.6,76.4z"/>
			</g>
			<g>
				<path class="st5" d="M526.9,93.3c-2.8,0-5.1,2.3-5.1,5.1v5.1c0,2.8,2.3,5.1,5.1,5.1c2.8,0,5.1-2.3,5.1-5.1v-5.1
					C532,95.6,529.7,93.3,526.9,93.3z"/>
			</g>
		</g>
		<g>
			<path class="st3" d="M497.2-17.1c-1.3-16.3,3.8-26.7,15.1-31.8c1.5-2.4,2.2-5.3,1.9-8.7c0.6-7-11.8-3-13.3-0.3
				c-6,4.2-12,5.7-13.1-1.3l2-18.1c-1.3-4-3.9-5.7-9.2-3.1c-6,5.3-11.3,9.4-13.6,6.8c-8.8,10.3-15.3,22-17.4,36.4
				c2.8,1,4.8,3.3,4.8,8.9c1.9,14.5,6.1,17.2,13,7.4c8.2-14.6,13.7-15,16,1C486.5-7.4,490.9-5.2,497.2-17.1z"/>
			<path class="st5" d="M489.8-8.9c-0.1,0-0.3,0-0.4,0c-2.6-0.3-4.6-3.9-6.3-10.9c-1.1-7.3-2.8-11.2-5.1-11.7
				c-2.5-0.5-6,3.1-10.2,10.7c-3.2,4.5-5.8,6.5-8,5.9c-2.7-0.7-4.6-5.1-5.7-13.5c0-6.1-2.4-7.8-4.5-8.6l-0.3-0.1l0-0.3
				c1.9-13.2,7.6-25.2,17.4-36.6l0.3-0.3l0.3,0.3c0.4,0.4,0.8,0.7,1.4,0.7c2.7,0.2,7.4-3.7,11.7-7.5l0.1-0.1
				c2.7-1.3,4.8-1.6,6.4-0.9c1.5,0.6,2.5,2,3.3,4.3l0,0.1l-2,18.2c0.3,2.2,1.2,3.6,2.6,4.2c2.2,0.9,5.7-0.2,9.9-3.1
				c1.3-2,7.8-4.6,11.4-3.4c1.3,0.4,2.7,1.4,2.5,4.1c0.2,3.3-0.4,6.3-2,8.8l-0.1,0.1l-0.1,0c-11.2,5-16.2,15.5-14.9,31.4l0,0.1
				l-0.1,0.1C494.7-11.5,492.1-8.9,489.8-8.9z M477.6-32.3c0.2,0,0.4,0,0.6,0.1c2.7,0.5,4.6,4.5,5.7,12.3c1.6,6.5,3.5,10,5.7,10.3
				c2.1,0.3,4.5-2.3,7.3-7.5c-1.3-16.1,3.8-26.8,15.2-32c1.4-2.4,2-5.2,1.8-8.4c0.2-1.8-0.5-2.9-2-3.3c-3.3-1-9.6,1.4-10.6,3.2
				l-0.1,0.1c-3.2,2.2-7.6,4.6-10.7,3.2c-1.6-0.7-2.6-2.3-3-4.8l0,0l2-18.1c-0.6-2-1.6-3.2-2.8-3.7c-1.4-0.6-3.4-0.3-5.8,0.9
				c-4.6,4.1-9.2,7.8-12.2,7.6c-0.6,0-1.2-0.3-1.6-0.6c-9.5,11.2-15.1,22.8-17,35.6c3.2,1.3,4.8,4.3,4.7,9.2
				c1,7.9,2.7,12.2,5.1,12.8c1.9,0.5,4.3-1.4,7.2-5.6C471.4-28.6,474.8-32.3,477.6-32.3z"/>
		</g>
		<g>
			<circle class="st8" cx="520.7" cy="-23.1" r="20"/>
		</g>
		<g>
			<path class="st5" d="M520.7,14.4c-20.7,0-37.6-16.9-37.6-37.6c0-20.7,16.9-37.6,37.6-37.6c20.7,0,37.6,16.9,37.6,37.6
				C558.3-2.4,541.4,14.4,520.7,14.4z M520.7-60c-20.3,0-36.8,16.5-36.8,36.8c0,20.3,16.5,36.8,36.8,36.8
				c20.3,0,36.8-16.5,36.8-36.8C557.5-43.4,541-60,520.7-60z"/>
		</g>
		<g>
			<path class="st5" d="M520.4,16.6c-22.1,0-40.1-18-40.1-40.1s18-40.1,40.1-40.1c22.1,0,40.1,18,40.1,40.1S542.5,16.6,520.4,16.6z
				 M520.4-62.8c-21.7,0-39.4,17.7-39.4,39.4s17.7,39.4,39.4,39.4c21.7,0,39.4-17.7,39.4-39.4S542.1-62.8,520.4-62.8z"/>
		</g>
		<g>
			<path class="st5" d="M520.7,22.5c-25.1,0-45.6-20.5-45.6-45.6s20.5-45.6,45.6-45.6s45.6,20.5,45.6,45.6S545.9,22.5,520.7,22.5z
				 M520.7-68c-24.7,0-44.9,20.1-44.9,44.9s20.1,44.9,44.9,44.9s44.9-20.1,44.9-44.9S545.5-68,520.7-68z"/>
		</g>
	</g>
</g>
<g id="_x33_rd">
	<rect id="Background_2_" x="1147.8" y="-310" class="st0" width="824.4" height="1549.6"/>
</g>
<g id="_x32_nd">
	<rect id="Background_1_" x="-107.2" y="-310" class="st0" width="824.4" height="1549.6"/>
	<rect id="Background_3_" x="2421.8" y="-310" class="st0" width="824.4" height="1549.6"/>
	<rect id="Background_4_" x="-668.9" y="1850" class="st0" width="824.4" height="1549.6"/>
	<g id="cool_abstract_thingy_4_">
		
			<rect x="439.1" y="2453.3" transform="matrix(4.489126e-11 -1 1 4.489126e-11 -2014.2554 3740.2339)" class="st1" width="847.8" height="847.8"/>
		<circle class="st2" cx="651" cy="2665.3" r="211.9"/>
		
			<rect x="227.1" y="2665.3" transform="matrix(4.494011e-11 -1 1 4.494011e-11 -2508.8054 3104.3838)" class="st3" width="141.3" height="282.6"/>
		
			<rect x="227.1" y="2806.6" transform="matrix(4.486995e-11 -1 1 4.486995e-11 -2650.1055 3245.6838)" class="st2" width="141.3" height="282.6"/>
		
			<rect x="580.4" y="3725" transform="matrix(4.487617e-11 -1 1 4.487617e-11 -3285.9553 4588.0337)" class="st2" width="141.3" height="423.9"/>
		
			<rect x="121.2" y="3407.1" transform="matrix(4.486995e-11 -1 1 4.486995e-11 -3462.5803 3846.2087)" class="st1" width="141.3" height="494.5"/>
		
			<rect x="85.8" y="2524" transform="matrix(4.486995e-11 -1 1 4.486995e-11 -2508.8054 2821.7837)" class="st4" width="141.3" height="282.6"/>
		<circle class="st0" cx="368.4" cy="2665.3" r="70.7"/>
		
			<rect x="-126.1" y="2735.9" transform="matrix(4.490503e-11 -1 1 4.490503e-11 -2862.0554 2892.4338)" class="st5" width="282.6" height="282.6"/>
		
			<rect x="156.5" y="3018.5" transform="matrix(4.490503e-11 -1 1 4.490503e-11 -2862.0554 3457.6338)" class="st5" width="282.6" height="282.6"/>
		
			<rect x="156.5" y="3725" transform="matrix(4.490503e-11 -1 1 4.490503e-11 -3568.5554 4164.1338)" class="st5" width="282.6" height="282.6"/>
		
			<rect x="297.8" y="3018.5" transform="matrix(4.490192e-11 -1 1 4.490192e-11 -3003.3555 3881.5337)" class="st2" width="282.6" height="847.8"/>
		
			<rect x="721.7" y="3301.1" transform="matrix(4.494056e-11 -1 1 4.494056e-11 -2862.0554 4588.0337)" class="st5" width="282.6" height="847.8"/>
		<circle class="st4" cx="15.2" cy="3159.8" r="141.3"/>
		<circle class="st4" cx="1004.3" cy="3442.4" r="141.3"/>
		<circle class="st4" cx="933.6" cy="3937" r="70.7"/>
	</g>
	<g id="cool_abstract_thingy_2_">
		
			<rect x="-45" y="662" transform="matrix(-0.7071 0.7071 -0.7071 -0.7071 1414.6333 1585.9072)" class="st1" width="847.8" height="847.8"/>
		<circle class="st2" cx="378.9" cy="1385.7" r="211.9"/>
		
			<rect x="657.9" y="1394.2" transform="matrix(-0.7071 0.7071 -0.7071 -0.7071 2329.533 2106.1711)" class="st3" width="141.3" height="282.6"/>
		
			<rect x="757.8" y="1294.3" transform="matrix(-0.7071 0.7071 -0.7071 -0.7071 2429.4473 1864.9569)" class="st2" width="141.3" height="282.6"/>
		
			<rect x="1207.4" y="274.5" transform="matrix(-0.7071 0.7071 -0.7071 -0.7071 2525.811 -73.3279)" class="st2" width="141.3" height="423.9"/>
		
			<rect x="1332.3" y="763.7" transform="matrix(-0.7071 0.7071 -0.7071 -0.7071 3109.9287 733.8216)" class="st1" width="141.3" height="494.5"/>
		
			<rect x="657.9" y="1594.1" transform="matrix(-0.7071 0.7071 -0.7071 -0.7071 2470.833 2447.2996)" class="st4" width="141.3" height="282.6"/>
		<circle class="st0" cx="578.7" cy="1585.5" r="70.7"/>
		
			<rect x="837" y="1544.1" transform="matrix(-0.7071 0.7071 -0.7071 -0.7071 2861.9185 2185.3923)" class="st5" width="282.6" height="282.6"/>
		
			<rect x="837" y="1144.5" transform="matrix(-0.7071 0.7071 -0.7071 -0.7071 2579.3184 1503.1356)" class="st5" width="282.6" height="282.6"/>
		
			<rect x="1336.6" y="644.9" transform="matrix(-0.7071 0.7071 -0.7071 -0.7071 3078.8894 297.0647)" class="st5" width="282.6" height="282.6"/>
		
			<rect x="937" y="562.1" transform="matrix(-0.7071 0.7071 -0.7071 -0.7071 2537.9326 920.793)" class="st2" width="282.6" height="847.8"/>
		
			<rect x="837" y="62.5" transform="matrix(-0.7071 0.7071 -0.7071 -0.7071 2014.1185 138.6221)" class="st5" width="282.6" height="847.8"/>
		<circle class="st4" cx="1178.2" cy="1485.6" r="141.3"/>
		<circle class="st4" cx="678.6" cy="586.4" r="141.3"/>
		<circle class="st4" cx="1078.3" cy="286.6" r="70.7"/>
	</g>
	<g id="cool_abstract_thingy_3_">
		
			<rect x="2846.7" y="581.5" transform="matrix(-1 1.186794e-14 -1.186794e-14 -1 6541.2783 2010.7892)" class="st1" width="847.8" height="847.8"/>
		<circle class="st2" cx="3058.7" cy="1217.3" r="211.9"/>
		
			<rect x="3129.3" y="1429.3" transform="matrix(-1 -1.224647e-16 1.224647e-16 -1 6399.9785 3141.1892)" class="st3" width="141.3" height="282.6"/>
		
			<rect x="3270.6" y="1429.3" transform="matrix(-1 -1.224647e-16 1.224647e-16 -1 6682.5786 3141.1892)" class="st2" width="141.3" height="282.6"/>
		
			<rect x="4259.7" y="1005.4" transform="matrix(-1 -1.224647e-16 1.224647e-16 -1 8660.7783 2434.6892)" class="st2" width="141.3" height="423.9"/>
		
			<rect x="3977.1" y="1429.3" transform="matrix(-1 -1.224647e-16 1.224647e-16 -1 8095.5786 3353.1392)" class="st1" width="141.3" height="494.5"/>
		
			<rect x="2988" y="1570.6" transform="matrix(-1 -1.224647e-16 1.224647e-16 -1 6117.3784 3423.7893)" class="st4" width="141.3" height="282.6"/>
		<circle class="st0" cx="3058.7" cy="1499.9" r="70.7"/>
		
			<rect x="3129.3" y="1711.9" transform="matrix(-1 -3.875823e-14 3.875823e-14 -1 6541.2783 3706.3892)" class="st5" width="282.6" height="282.6"/>
		
			<rect x="3411.9" y="1429.3" transform="matrix(-1 -1.224647e-16 1.224647e-16 -1 7106.4785 3141.1892)" class="st5" width="282.6" height="282.6"/>
		
			<rect x="4118.4" y="1429.3" transform="matrix(-1 -1.224647e-16 1.224647e-16 -1 8519.4785 3141.1892)" class="st5" width="282.6" height="282.6"/>
		
			<rect x="3694.5" y="1005.4" transform="matrix(-1 -1.224647e-16 1.224647e-16 -1 7671.6782 2858.5891)" class="st2" width="282.6" height="847.8"/>
		
			<rect x="3977.1" y="581.5" transform="matrix(-1 -1.224647e-16 1.224647e-16 -1 8236.8779 2010.7892)" class="st5" width="282.6" height="847.8"/>
		<circle class="st4" cx="3553.2" cy="1853.2" r="141.3"/>
		<circle class="st4" cx="3835.8" cy="864.1" r="141.3"/>
		<circle class="st4" cx="4330.4" cy="934.7" r="70.7"/>
	</g>
	<g>
		<path class="st1" d="M630,204.1c14.3,0,26,11.7,26,26s-11.7,26-26,26H486c-14.3,0-26-11.7-26-26s11.7-26,26-26H630 M630,203.1H486
			c-14.9,0-27,12.1-27,27s12.1,27,27,27h144c14.9,0,27-12.1,27-27S644.9,203.1,630,203.1L630,203.1z"/>
	</g>
	<g>
		<path class="st1" d="M387,204.1c14.3,0,26,11.7,26,26s-11.7,26-26,26H243c-14.3,0-26-11.7-26-26s11.7-26,26-26H387 M387,203.1H243
			c-14.9,0-27,12.1-27,27s12.1,27,27,27h144c14.9,0,27-12.1,27-27S401.9,203.1,387,203.1L387,203.1z"/>
	</g>
	<g>
		<path class="st1" d="M135,204.1c14.3,0,26,11.7,26,26s-11.7,26-26,26H-9c-14.3,0-26-11.7-26-26s11.7-26,26-26H135 M135,203.1H-9
			c-14.9,0-27,12.1-27,27s12.1,27,27,27h144c14.9,0,27-12.1,27-27S149.9,203.1,135,203.1L135,203.1z"/>
	</g>
	<g id="choose_your_era">
		<g id="Line">
			<rect y="55.6" class="st2" width="45" height="3.2"/>
		</g>
		<g>
			<text transform="matrix(1 0 0 1 0 41.0625)" class="st3 st9 st10">choose your era</text>
		</g>
	</g>
	<g id="choose_your_era_1_">
		<g id="Line_5_">
			<rect x="1269" y="55.6" class="st2" width="45" height="3.2"/>
		</g>
		<g>
			<text transform="matrix(1 0 0 1 1269 41.0625)" class="st3 st9 st10">old school</text>
		</g>
	</g>
	<g id="choose_your_era_2_">
		<g id="Line_12_">
			<rect x="2547" y="55.6" class="st2" width="45" height="3.2"/>
		</g>
		<g>
			<text transform="matrix(1 0 0 1 2547 41.0625)" class="st3 st9 st10">SLICK RICK</text>
		</g>
	</g>
	<g id="choose_your_era_4_">
		<g id="Line_16_">
			<rect x="-540" y="2251.6" class="st2" width="45" height="3.2"/>
		</g>
		<g>
			<text transform="matrix(1 0 0 1 -540 2237.0625)" class="st3 st9 st10">RAP.io RADIO</text>
		</g>
	</g>
	<g id="choose_your_era_3_">
		<g id="Line_10_">
			<rect x="2547" y="559.6" class="st2" width="45" height="3.2"/>
		</g>
		<g>
			<text transform="matrix(1 0 0 1 2547 545.0625)" class="st3 st9 st10">TOP ALBUMS</text>
		</g>
	</g>
	<g id="old_school">
		<g id="Line_1_">
			<rect x="18.4" y="246" class="st2" width="27.3" height="1.9"/>
		</g>
		<g>
			<text transform="matrix(1 0 0 1 18.4189 237.1583)" class="st3 st9" style="font-size:29.163px;">RAP.io</text>
		</g>
	</g>
	<g id="old_school_year">
		<g id="Line_6_">
			<rect x="-2.6" y="318" class="st2" width="27.3" height="1.9"/>
		</g>
		<g>
			<text transform="matrix(1 0 0 1 -17.5811 309.1583)" class="st3 st9" style="font-size:29.163px;">1979 - 1989</text>
		</g>
	</g>
	<g>
		<path class="st1" d="M1843,204.1c14.3,0,26,11.7,26,26s-11.7,26-26,26h-144c-14.3,0-26-11.7-26-26s11.7-26,26-26H1843 M1843,203.1
			h-144c-14.9,0-27,12.1-27,27s12.1,27,27,27h144c14.9,0,27-12.1,27-27S1857.9,203.1,1843,203.1L1843,203.1z"/>
	</g>
	<g id="old_school_3_">
		<g id="Line_13_">
			<rect x="1691.4" y="246" class="st2" width="27.3" height="1.9"/>
		</g>
		<g>
			<text transform="matrix(1 0 0 1 1691.4189 237.1583)" class="st3 st9" style="font-size:29.163px;">braggadocio</text>
		</g>
	</g>
	<g>
		<path class="st1" d="M1474,204.1c14.3,0,26,11.7,26,26s-11.7,26-26,26h-144c-14.3,0-26-11.7-26-26s11.7-26,26-26H1474 M1474,203.1
			h-144c-14.9,0-27,12.1-27,27s12.1,27,27,27h144c14.9,0,27-12.1,27-27S1488.9,203.1,1474,203.1L1474,203.1z"/>
	</g>
	<g id="old_school_1_">
		<g id="Line_11_">
			<rect x="1330.4" y="246" class="st2" width="27.3" height="1.9"/>
		</g>
		<g>
			<text transform="matrix(1 0 0 1 1330.4189 237.1583)" class="st3 st9" style="font-size:29.163px;">the struggle</text>
		</g>
	</g>
	<g id="old_school_5_">
		<g id="Line_18_">
			<rect x="1313.4" y="320" class="st2" width="27.3" height="1.9"/>
		</g>
		<g>
			<text transform="matrix(1 0 0 1 1313.4189 312.8066)" class="st3 st9" style="font-size:23.0798px;">- Grandmaster Flash</text>
		</g>
	</g>
	<g id="old_school_6_">
		<g id="Line_19_">
			<rect x="1313.4" y="354" class="st2" width="27.3" height="1.9"/>
		</g>
		<g>
			<text transform="matrix(1 0 0 1 1313.4189 346.8066)" class="st3 st9" style="font-size:23.0798px;">- Run DMC</text>
		</g>
	</g>
	<g id="old_school_7_">
		<g id="Line_20_">
			<rect x="1313.4" y="390" class="st2" width="27.3" height="1.9"/>
		</g>
		<g>
			<text transform="matrix(1 0 0 1 1313.4189 382.8066)" class="st3 st9" style="font-size:23.0798px;">- Sugarhill Gang</text>
		</g>
	</g>
	<g id="old_school_10_">
		<g id="Line_23_">
			<rect x="1683.4" y="320" class="st2" width="27.3" height="1.9"/>
		</g>
		<g>
			<text transform="matrix(1 0 0 1 1683.4189 312.8066)" class="st3 st9" style="font-size:23.0798px;">- Public Enemy</text>
		</g>
	</g>
	<g id="old_school_9_">
		<g id="Line_22_">
			<rect x="1683.4" y="354" class="st2" width="27.3" height="1.9"/>
		</g>
		<g>
			<text transform="matrix(1 0 0 1 1683.4189 346.8066)" class="st3 st9" style="font-size:23.0798px;">- LL Cool J</text>
		</g>
	</g>
	<g id="old_school_8_">
		<g id="Line_21_">
			<rect x="1683.4" y="390" class="st2" width="27.3" height="1.9"/>
		</g>
		<g>
			<text transform="matrix(1 0 0 1 1683.4189 382.8066)" class="st3 st9" style="font-size:23.0798px;">- Slick Rick</text>
		</g>
	</g>
	<g id="old_school_year_1_">
		<g id="Line_7_">
			<rect x="245.8" y="318" class="st2" width="27.3" height="1.9"/>
		</g>
		<g>
			<text transform="matrix(1 0 0 1 234.4189 309.1583)" class="st3 st9" style="font-size:29.163px;">1989 - 2006 </text>
		</g>
	</g>
	<g id="old_school_year_2_">
		<g id="Line_8_">
			<rect x="503.4" y="318" class="st2" width="27.3" height="1.9"/>
		</g>
		<g>
			<text transform="matrix(1 0 0 1 488.4189 309.1583)" class="st3 st9" style="font-size:29.163px;">2006 - ∞</text>
		</g>
	</g>
	<g id="LL_COOL_J_TEXT">
		<g id="Line_4_">
			<rect x="81" y="947.8" class="st2" width="27.3" height="1.9"/>
		</g>
		<g>
			<text transform="matrix(1 0 0 1 81 939.0107)" class="st3" style="font-family:'Roboto-Medium'; font-size:29.163px;">LL COOL J</text>
		</g>
		<g>
			<text transform="matrix(1 0 0 1 81 1004.0107)" class="st3 st9" style="font-size:29.163px;">rapping since. 1984 </text>
		</g>
	</g>
	<g id="LL_COOL_J_TEXT_1_">
		<g id="Line_9_">
			<rect x="1665" y="650.8" class="st2" width="27.3" height="1.9"/>
		</g>
		<g>
			<text transform="matrix(1 0 0 1 1665 642.0107)" class="st3" style="font-family:'Roboto-Medium'; font-size:21px;">SUGARHILL GANG</text>
		</g>
		<g>
			<text transform="matrix(1 0 0 1 1665 707.0107)" class="st3 st9" style="font-size:29.163px;">rapping since. 1979 </text>
		</g>
	</g>
	<g id="golden_age">
		<g id="Line_2_">
			<rect x="245.8" y="245.8" class="st2" width="27.3" height="1.9"/>
		</g>
		<g>
			<text transform="matrix(1 0 0 1 245.8258 237.0107)" class="st3 st9" style="font-size:29.163px;">golden age</text>
		</g>
	</g>
	<g id="modern">
		<g id="Line_3_">
			<rect x="504.4" y="245.8" class="st2" width="27.3" height="1.9"/>
		</g>
		<g>
			<text transform="matrix(1 0 0 1 504.4189 237.0107)" class="st3 st9" style="font-size:29.163px;">modern</text>
		</g>
	</g>
	<g id="modern_1_">
		<g id="Line_14_">
			<rect x="2988.4" y="40.8" class="st2" width="27.3" height="1.9"/>
		</g>
		<g>
			<text transform="matrix(1 0 0 1 2988.4189 32.0107)" class="st3 st9" style="font-size:29.163px;">January 14, 1965</text>
		</g>
	</g>
	<g id="modern_2_">
		<g id="Line_15_">
			<rect x="2988.4" y="110.8" class="st2" width="27.3" height="1.9"/>
		</g>
		<g>
			<text transform="matrix(1 0 0 1 2988.4189 102.0107)" class="st3 st9" style="font-size:29.163px;">Mitcham, London</text>
		</g>
	</g>
	<g id="ll_cool_j">
		<g>
			
				<image style="overflow:visible;" width="284" height="393" xlink:href="llcoolj.png"  transform="matrix(1.8639 -0.1346 0.1346 1.8639 210 448.2758)">
			</image>
		</g>
		<defs>
			<filter id="Adobe_OpacityMaskFilter" filterUnits="userSpaceOnUse" x="229.4" y="437.8" width="539.7" height="734.3">
				<feFlood  style="flood-color:white;flood-opacity:1" result="back"/>
				<feBlend  in="SourceGraphic" in2="back" mode="normal"/>
			</filter>
		</defs>
		<mask maskUnits="userSpaceOnUse" x="229.4" y="437.8" width="539.7" height="734.3" id="SVGID_1_">
			<g class="st11">
				
					<image style="overflow:visible;" width="545" height="739" xlink:href="18B422B4.jpg"  transform="matrix(1 0 0 1 227 435.0625)">
				</image>
			</g>
		</mask>
		<g class="st12">
			<path class="st1" d="M409.2,950.1c4.9,4.2,2.4,7.3,0.9,13c-1.2,4.8-3.2,9.2-3.7,14.3c-0.8,8.2-3.1,16.3-3.8,24.6
				c-0.9,9.2-2.8,16.6-6.6,24.8c-1.9,4.1-1.8,8.1-2.9,12.4c-1,3.9-1.6,7.9-1,12.3c0.7,4.8,2.4,7.9,4.6,11.8c1.6,2.9,8,7.5,8.3,10.6
				c0.2,2.4-2.4,5.6-3.2,7.7c-0.7,1.8-1.3,3.8-1.5,5.7c-0.4,5.2-1.2,6.9-2.9,11.5c-1.6,4.3-0.1,8.6-0.9,13.2
				c-0.7,3.8-3.8,7.7-4.8,11.6c-2.1,8.1-3.3,16-3.8,24.6c-0.3,4.9-2.4,8.7-2.8,13.3c-0.3,3.6-1.5,7.1-1.1,10.4l277.7-20
				c-0.2-2.1,0-4.5-0.5-6.5c0.3-1.7-0.4-2.9-2.1-3.6c-0.6-1.7,0-2.9,1.6-3.9c0.3-2.2,1.1-4.7,1.3-7.6c0.2-3.1,1.1-4.7,1.3-7.6
				c0.8-10.4-2.6-20.5,2.6-29.2c3.3-5.6,9.2-9.7,13-15c3.1-4.3,3.3-10.4,4.5-15.3c2.8-11.1,14.1-20.1,19.3-30.4
				c5.1-10.1,9.6-19.8,13.8-30c1-2.6,2.2-5.2,3.2-7.7c1.2-2.9,3.9-4.9,5.1-7.9c2-4.9,2.6-10.4,4.5-15.3c1.8-4.5,3.4-8.7,4.6-13.5
				c1.2-4.5,2.4-11.2,4.5-15.3c3-5.8,7.7-9.8,10.1-15.7c1.4-3.5,4-10.2,2.7-14.2L380.4,940C389,943.5,402.4,944.2,409.2,950.1z
				 M285.6,950.6l-1.9,0.1c0,0.6,0.1,1.2,0.1,1.9l-1.9,0.1c0.1,1.2,0.2,2.5,0.3,3.7l14.9-1.1c2.4-1.4,4.8-2.8,7.2-4.3l13-0.9
				c0-0.6-0.1-1.2-0.1-1.9l-10.7,0.8l20-1.4c1.8-1.4,3.5-2.8,5.3-4.1l-44.7,3.2C286.7,948,286.1,949.3,285.6,950.6z M768.2,836.1
				c-0.7-0.6-1.3-1.2-2-1.7c0.6-0.7,1.2-1.3,1.7-2c0.1-1.2-0.6-2.6-0.3-3.7c0.8-3,1.6-4,1.3-7.6c-0.7-9.6-1.4-19.3-2.1-28.9
				c0-5.5-6.6-12-9.6-16.2c-3.8-5.4-7.8-10.8-12.4-16c-9.6-10.7-20.9-16.5-32.7-24.8c-11.1-7.8-25.6-18.4-30.2-29.7
				c-1.3-3.1-1.5-5.5-3.4-8.2c-2-2.9-5.4-4.8-7.1-7.9c-2.7-4.7-2.6-9.9-3-15.7l1.9-0.1c0,0.6,0.1,1.2,0.1,1.9l16.8-1.2
				c0-0.6-0.1-1.2-0.1-1.9l-8.8,0.6l14.4-1c2.3-5,4.2-9.1,4.6-14.4c0.3-4.2-0.6-8.8-0.9-13c-0.3-4.2,0-8.9-0.9-13
				c-1.3-5.9-3.3-6.9-0.9-13c1.8-4.7,6-9.3,8.4-13.7c2.4-4.6,4.6-8.9,6.5-13.6c1.9-4.7,3.4-8.6,4.6-13.5c0.8-3,1.1-4.1,1.3-7.6
				c0.2-2.7,1.3-4.4,1.4-6.7c1.2-20.2-5.8-37.9-16.9-52.2c-6.3-8.2-16.2-17.7-26-22.5c-9.3-4.5-19.3-6.2-28.8-10.1l-9.3,0.7
				c-0.6-8.5-0.7-14.8-8.8-18.1l-11.2,0.8c0-0.6-0.1-1.2-0.1-1.9l-115.8,8.4l104.6-7.6c0-0.6-0.1-1.2-0.1-1.9l-322.5,23.3
				c0,0.6,0.1,1.2,0.1,1.9l1.9-0.1c0,0.6,0.1,1.2,0.1,1.9c0.5,6.6,2.7,11.5,3.2,18.5c0.2,2.1,0,4.5,0.5,6.5c0.5,2.2,1.9,3.9,2.3,5.5
				c0.4,1.7,0.3,3.8,0.4,5.6c0.2,3.3-1.1,5.1-1.3,7.6c-0.3,3.6,0.5,7.6,0.8,11.2c2.6,1.1,2.7,2.3,0.3,3.7c0.1,0.9,0.1,1.9,0.2,2.8
				c0.6,2.7,1.8,3.8,2.3,6.4c0.3,1.4,0.5,4.2,0.4,5.6c-0.2,2.2-1.3,4.1-1.5,5.7c-0.2,2.4,0.5,5,0.5,7.5c-0.6,0.7-1.2,1.3-1.7,2
				c-0.3,1.7,0.4,2.9,2.1,3.6c0.9,5.2-1.4,8-2.9,12.4c-1.4,4.3-0.6,7.5-1,12.2c-0.2,2.4-1.3,3.3-1.5,5.7c-0.2,3.1,2.3,5.4,2.4,7.3
				c0.3,4.5-2.6,7.8-4.8,11.6c-5,8.8-10.9,17-16.9,25.6c-3,4.3-5.6,9-8.4,13.7c-2.3,3.9-5.8,8.9-8.4,12.8
				c-5.8,8.4-11.2,16.1-15,25.4c-2.2,6.2-8.9,14.8-5.9,22c1.1,2.6,6.4,7.8,8.2,9.7c2.9,3.1,6.4,6.7,10.1,9.6
				c13.6,10.6,28.5,18.3,44,25.9c13.8,6.7,28.6,13,43.4,17.2c3.5,1,8.3,1.7,11.5,3.5c5.6,3.2,3.4,4.3,0.7,9
				c-1.8,3.1-3.1,7.6-4.9,10.7c-1.8,3.1-5.6,6.7-4.9,10.7l-3.7,0.3c-2.6-1.1-5.1-2.1-7.7-3.2l-13,0.9c-0.5,1.3-1.1,2.6-1.6,3.9
				l-1.9,0.1c-0.7,6.7,7.8,8.2,13,10.8c2.4,1.2,6.7,3.2,7,5.6c0,0.2-4.8,8.5-5,8.8c-6.1,11-9.7,22.4-14.4,33.8
				c-0.9,2.2,0.7,2.5-0.6,4.3c-0.7,1-2.6,1.4-3.6,2.1c-4.2,3.4-3,2.9-4.2,7.3c-1,3.9-1,4.8-0.4,8c0.2,1.2,2.8,0.7,3,3.1
				c0.1,1-3,3-3.5,4c-2.6,5.6-5.7,11.6-8.1,17.4c-1.9,4.5-1,12.1-4.4,16.2l462.2-33.4c1.4-2.7,2.2-5.2,3.2-7.7
				c1.2-3.1,2-4.6,4.1-7.8c2.9-4.3,4.2-10.4,5.4-15.4c2.5-9.7,4.2-19.4,3.4-30.2C767.1,845.9,768.7,841.9,768.2,836.1z M592.9,458.1
				l-13,0.9c0-0.6-0.1-1.2-0.1-1.9l-13,0.9c0-0.6-0.1-1.2-0.1-1.9l-11.2,0.8c0-0.6-0.1-1.2-0.1-1.9l-13,0.9c0-0.6-0.1-1.2-0.1-1.9
				l-13,0.9c0-0.6-0.1-1.2-0.1-1.9l-249.8,18c0,0.6,0.1,1.2,0.1,1.9s0.1,1.2,0.1,1.9l190.5-13.8L281.3,475c0,0.6,0.1,1.2,0.1,1.9
				l1.9-0.1c0,0.6,0.1,1.2,0.1,1.9c0,0.6,0.1,1.2,0.1,1.9l-1.9,0.1c0,0.6,0.1,1.2,0.1,1.9L593.1,460
				C593,459.3,593,458.7,592.9,458.1z M517.6,452.3l-13,0.9c0-0.6-0.1-1.2-0.1-1.9l-11.2,0.8c0-0.6-0.1-1.2-0.1-1.9l-214.3,15.5
				c0,0.6,0.1,1.2,0.1,1.9c0,0.6,0.1,1.2,0.1,1.9c0,0.6,0.1,1.2,0.1,1.9l238.6-17.2C517.7,453.5,517.6,452.9,517.6,452.3z
				 M481.7,449.3l-165,11.9l152-11c0-0.6-0.1-1.2-0.1-1.9l-13,0.9c0-0.6-0.1-1.2-0.1-1.9l-11.2,0.8c0-0.6-0.1-1.2-0.1-1.9l-13,0.9
				c0-0.6-0.1-1.2-0.1-1.9l-113.5,8.2l98.6-7.1c0-0.6-0.1-1.2-0.1-1.9l-48.5,3.5l37.3-2.7c0-0.6-0.1-1.2-0.1-1.9l-52.7,3.8l41.5-3
				c0-0.6-0.1-1.2-0.1-1.9l-36.1,2.6l26.8-1.9c0-0.6-0.1-1.2-0.1-1.9l-11.2,0.8c0-0.6-0.1-1.2-0.1-1.9l-9.3,0.7
				c-2.6-1.1-5.1-2.1-7.7-3.2l-11.2,0.8c-1.2,1.3-2.3,2.7-3.5,4l13.8-1l-19.4,1.4c0,0.6,0.1,1.2,0.1,1.9l14.1-1l-19.7,1.4
				c0,0.6,0.1,1.2,0.1,1.9l-5.6,0.4c0,0.6,0.1,1.2,0.1,1.9l-7.1,0.5l5.3-0.4c0-0.6-0.1-1.2-0.1-1.9l-5.6,0.4c0,0.6,0.1,1.2,0.1,1.9
				l-3.7,0.3c0,0.6,0.1,1.2,0.1,1.9l-5.6,0.4c0,0.6,0.1,1.2,0.1,1.9l-3.7,0.3c0,0.6,0.1,1.2,0.1,1.9l-3.7,0.3c0,0.6,0.1,1.2,0.1,1.9
				l-3.7,0.3c-2-1.1-3.9-2.2-5.9-3.3l-5.6,0.4c-0.5,1.3-1.1,2.6-1.6,3.9l8.1-0.6l-9.9,0.7c0,0.6,0.1,1.2,0.1,1.9l115.4-8.3
				l-117.2,8.5c0,0.6,0.1,1.2,0.1,1.9l-1.9,0.1c0,0.6,0.1,1.2,0.1,1.9l203.2-14.7C481.8,450.5,481.8,449.9,481.7,449.3z"/>
		</g>
	</g>
	<g id="sugarhillgang.psd">
		<g>
			<g>
				<defs>
					<rect id="SVGID_2_" x="1152" y="626.1" width="912.2" height="513.1"/>
				</defs>
				<clipPath id="SVGID_3_">
					<use xlink:href="#SVGID_2_"  style="overflow:visible;"/>
				</clipPath>
				<g style="clip-path:url(#SVGID_3_);">
					
						<image style="overflow:visible;" width="897" height="419" id="Layer_0" xlink:href="18B422BC.png"  transform="matrix(0.9502 0 0 0.9502 1152 741.0405)">
					</image>
				</g>
			</g>
		</g>
		<defs>
			<filter id="Adobe_OpacityMaskFilter_1_" filterUnits="userSpaceOnUse" x="1152" y="741.1" width="853" height="399">
				<feFlood  style="flood-color:white;flood-opacity:1" result="back"/>
				<feBlend  in="SourceGraphic" in2="back" mode="normal"/>
			</filter>
		</defs>
		<mask maskUnits="userSpaceOnUse" x="1152" y="741.1" width="853" height="399" id="SVGID_4_">
			<g class="st13">
				
					<image style="overflow:visible;" width="858" height="403" xlink:href="18B422BC.jpg"  transform="matrix(1 0 0 1 1150 739.0625)">
				</image>
			</g>
		</mask>
		<g class="st14">
			<path class="st1" d="M2005,900.6c-0.4-1.9-1.4-0.5-2-2c-0.3-0.8,0.2-2.1,0-3c-0.2-0.9-0.3-1.6-0.5-2.3c-0.5-0.3-1-0.5-1.5-0.8
				c0-0.5,0-1,0-1.5c-0.3-0.7,0.3-1.8,0-2.5c-0.1-0.2-1.7-1.6-2-2c0.2,0.3-1.2-3-1-2.5c-0.8,0-1.1-0.4-1-1c0-0.5,0-1,0-1.5
				c-0.3-0.9-0.5-2.2-1-3c-0.5-0.8-2.1-0.2-2-1.5c0.1-0.9,1.5-1.3,2-2c0.4-0.7,0.6-1.9,1-2.5c1.2-1.9,2-2.2,2-5c0-3.3,1-8.3,0-11.5
				c-0.3-1-1.7-0.8-2-1.5c-0.3-0.8,0-2.1,0-3c0-2.3-1-3.4-1-5.5c0-0.7,0-1.3,0-2c0-2.3,0-4.7,0-7c0-3.3-1.2-3.5-2-6
				c-0.3-1.1,0.2-2.4,0-3.5c-0.4-2.5-0.3-1.3-2-3c-1.5-1.5-2-2.9-2-5.5h-8c0-3.5,0-7,0-10.5c0-1.3,0.5-3.8,0-5c-0.7-1.8-1.6-1.7-2-4
				c-0.1-0.8,0.2-1.8,0-2.5c-0.3-1-1.7-0.8-2-1.5c-0.3-0.8,0.1-2.2,0-3c-0.2-1.1-0.7-1.5-1-2.5c-0.2-0.8,0.3-1.8,0-2.5
				c-0.3-0.7-1.7-0.5-2-1.5c-0.5-1.6,0.2-3.4-0.5-4.8c-0.1-0.1-1.4-1.7-1.5-1.8c-0.7-0.7-1.6-1.6-2-2c-1.5-1.5-2-1.9-3-3.5
				c-1.7-2.6-4.7-4.2-7-6.5c-1.1-1.1-1.9-3.1-3-4.5c-1.1-1.3-2.2-2-3.5-2.9c-1.7-1.2-2.9-0.9-4.5-2.1c-0.5-0.4-1.5-0.2-2-0.5
				c-0.5-0.3-0.7-2-2-2.5h-6c0-1.7-1-2.3-1-4h-6c0.6-3.4-4.7-0.6-4-4h-4c0-0.7,0-1.3,0-2h-7c0-0.7,0-1.3,0-2h-6c0-0.7,0-1.3,0-2h-46
				c0,0.7,0,1.3,0,2h-7c0,0.7,0,1.3,0,2h-2c0,0.7,0,1.3,0,2h-6c0.4,2.5-2.6,1.6-2,4h-2c0.6,3.4-4.7,0.6-4,4h-1
				c-1.7,0.7-1.2,1.6-2,2.5c-0.5,0.5-1.5,0.5-2,1c-0.9,0.9-1.9,2.4-3,3.5c-1.2,1.2-2.1,2.2-3,3.5c-0.3,0.5,0.2,1.5,0,2
				c0.1-0.3-2.1,1.6-2,1.5c-1.9,1.9-1.1,1.6-2,4c-0.6,1.5-1.2,2.3-2,3.5c0,0.1-0.5,2.1-0.5,2.3c-0.1,0.3-1.2,1.4-1.5,1.8
				c-0.2,0.4-0.4,2-0.5,2.3c-0.2,0.6-1.3,0.4-1.5,1.3c-0.9,3.1-0.4,6.3-1,9.5c-0.4,2.3-1.3,2.1-2,4c-0.5,1.5,0.5,3.5,0,5
				c-0.6,1.6-1.5,1.7-2,3.5c-0.2,0.8,0.3,1.8,0,2.5c-0.3,0.9-1.2,1.1-1.5,1.8c-0.9,2.3-0.5,5.9-0.5,8.8c0,8.3,0,16.7,0,25h-8
				c0-0.7,0-1.3,0-2h-9c0-0.7,0-1.3,0-2h-4c0-0.7,0-1.3,0-2h-2c0.6-3.4-4.7-0.6-4-4h-4c0-0.3,0-0.7,0-1h-24c0.4-1.5-2.1-3.2-3-4
				c-1.7-1.6-2.5-1.4-5-2.5c1,0.4-2.3-1.7-2-1.5c0.3,0.2-2.5-1.6-2.1-1.6c-0.9-0.3-2-0.2-2.9-0.7c-1.3-0.7-0.6-1-2-2.3
				c0-0.3,0-0.7,0-1c-0.7-0.2-1.3-0.3-2-0.5c-0.3-0.1-0.7-0.2-1-0.3c-1,0.1-1.3-0.3-1-1.3c-1.6-1.4-2.8-1.9-4.5-3.3
				c-1.8-1.5-2.2-1.4-4.5-2.5c-1.4-0.7-2.8-2.6-4-3.8c-1-1-1-1-2-1.8c-0.5-0.2-1-0.3-1.5-0.5c-0.6,0-0.8-0.4-0.5-1.2
				c-1.9-1.7-2.7-1.6-5-2.8c-1.5-0.8-2.3-2.4-3.5-3.5c-1.9-1.8-2.5-1.3-5-2.6c-1.2-0.6-2.5-3-3.5-4.1c-1.6-1.8-2.9-1.7-5-2.8
				c-3.7-1.8-3-5.5-3-9.8h-6c0.6-3.4-4.7-0.6-4-4h-5c-1.4-0.7-2.2-1.5-2-3h-4c0.4-2.5-2.6-1.6-2-4h-2c0-0.7,0-1.3,0-2h-4
				c0-0.7,0-1.3,0-2h-21c0,0.7,0,1.3,0,2h-5c0,0.7,0,1.3,0,2h-12c0-0.7,0-1.3,0-2h-34c0,0.7,0,1.3,0,2h-7c0.6,3.4-4.7,0.6-4,4h-6
				c0.2,1.5-0.6,2.4-2,3h-2c0.4,2.5-2.6,1.6-2,4h-2c0,3.8-0.7,4.2-3,6.5c-0.6,0.6-1.5,2.2-2,3c0,0.7,0,1.3,0,2c-0.7,0.3-1.3,0.7-2,1
				c-0.4,1.1,0.2,2.8,0,4c0,0.7,0,1.3,0,2c-0.7,0.3-1.3,0.7-2,1c0,0.7,0,1.3,0,2c0.3,0.9,0,1.4-1,1.5s-1.3,0.6-1,1.5
				c0,0.7,0,1.3,0,2c-0.7,0.3-1.3,0.7-2,1c0,0.7,0,1.3,0,2c-0.2,1.2,0.4,2.9,0,4c-0.8,2.2-3.2,3.8-4,6c-0.4,1.2,0.4,2.8,0,4
				c-0.7,0.3-1.3,0.7-2,1c0,0.7,0,1.3,0,2c-0.4,2.3,0,5.1,0,7.5c0,0.3,0,0.7,0,1h-15c0-0.3,0-0.7,0-1h-32c0,0.3,0,0.7,0,1h-15
				c0.4,2.5-2.6,1.6-2,4h-10c0,0.7,0,1.3,0,2h-5c0,0.7,0,1.3,0,2h-4c0,0.7,0,1.3,0,2h-6c0,0.7,0,1.3,0,2h-6c0.6,3.7-6.5,5.2-9,6.5
				c-1.6,0.9-1.7,1.6-3,2.3c-0.9,0.4-2.1,0.3-3,0.8c0.8-0.4-2.3,2.3-2,2c-0.4,0.4-1.3,1.3-2,2c-2.8,2.8-5.1,6.6-8,9.5
				c-2.8,2.8-6.9,5.3-9,8.5c-0.5,0.7-0.5,1.7-1,2.5c-0.5,0.8-2.1,1.4-2.5,2.3c-0.5,1-0.1,2.1-0.5,3.3c-0.2,0.4-1.7,1.6-2,2
				c-1.5,2.3-0.2,3.9-1,6.5c-0.4,1.2-1.5,1.2-2,2.5c-0.3,0.8,0,2.2,0,3c0,0.9,0.2,2.1,0,3c-0.3,1.5-0.6,1.6-1,2.5
				c-1,0.1-1.3,0.6-1,1.5c0,0.5,0,1,0,1.5c-0.2,1.1,0,2.4,0,3.5c0,4.2,0,8.3,0,12.5c0,2,0,4,0,6c0,12,0,24,0,36c0,1-0.3,2.6,0,3.5
				c0.7,0.3,1.3,0.7,2,1c0,0.7,0,1.3,0,2c0.2,0.9-0.3,2.1,0,3c0.5,1.5,1.5,1.5,2,3c0.4,1.2-0.4,2.8,0,4c0.4,1.1,1.5,1.7,2,2.5
				c0.8,1.4,1,1.5,1,3.5c0,1.2,0,2.3,0,3.5c0,1-0.3,2.6,0,3.5c0.7,0.3,1.3,0.7,2,1c0,0.7,0,1.3,0,2c0.6,3.3,0.8,3.3,3,5.5
				c1.1,1.1,1.7,1.4,3,2.5c-0.3,0.8-0.2,1.1,0.5,1.1c0.5,0.1,1,0.3,1.5,0.4c1.4,1,1.8,0.8,3,2c0.9,0.9,1.4,2.4,3,3h5
				c-0.5,3,7,2.1,6,6h9c-0.4,2.6,3.6,3.2,4,5.5c0.5,2.7-2.4,3.6-4,5c-0.9,0.8-1.1,1.4-3,2c-0.9,0.3-2.1,0.4-3,0.8
				c-0.8,0.4-2.1,1-3,1.8c-1.2,1-2.5-0.3-2,2h-6c0.4,2.5-2.6,1.6-2,4h-5c0.6,3.9-6.8,3.1-6,6h-4c0,0.7,0,1.3,0,2h-7c0,0.7,0,1.3,0,2
				h-6c0,0.3,0,0.7,0,1h-2c0.4,2.2-0.8,1.1-2,2c-0.7,0.2-1.3,0.3-2,0.5c0.3,0.7,0.1,1.1-0.5,1.3c-1.2,0.9-4.9,2.4-4.5,4.3h-2
				c0.6,2.9-4.5,3-4,6h-6c0.6,3.4-4.7,0.6-4,4h-5c0,0.7,0,1.3,0,2h-6c0,0.3,0,0.7,0,1h-6c0,0.7,0,1.3,0,2h-7c0,0.7,0,1.3,0,2h-6
				c0,0.7,0,1.3,0,2h-6c0,0.7,0,1.3,0,2h-6c0.8,3-3.8,1-3,4h-4c0.2-1.5-3.1-4.6-4-5.5c-1.7-1.7-1.6-0.5-2-3c-0.3-2,0.5-2.3,1-3.5
				c0.5-1.3,1-1.5,1-3.5c0-1.1-0.4-3,0-4c0.5-1.5,1.5-1.5,2-3c0.4-1.2-0.4-2.8,0-4c0.7-0.3,1.3-0.7,2-1c0-0.7,0-1.3,0-2
				c0.2-1.2-0.4-2.9,0-4c0.7-0.3,1.3-0.7,2-1c0-0.7,0-1.3,0-2c0.3-2,0-2,1-3.5c0.7-1,2.4-1.5,3-2.5c0.6-1,0.4-3.1,1-4
				c0.9-1.4,4.3-3.5,4-5.5h8c2.8-1.3,1.2-2.3,2-4.5c0.2-0.6,2.5-2,3-2.5c2.1-2.4,2-4.5,2-8c-0.2-1.3,1.3-2.8,2-3.5
				c0.9-0.9,2-2.5,3-3.5c0.7-0.7,2.7-2.1,3-3c0.4-1.2,0-3.2,0-4.5c0-2.2,0-3,1-4.5c0.7-1.1,2.4-1.8,3-3c0.4-0.7-0.3-1.8,0-2.5
				c0.2-0.6,1.7-0.5,2-1c0.5-0.7,0.5-1.8,1-2.5c-0.1,0.1,1.2-1.6,1.1-1.6c0.7-0.7,1.5-0.6,1.9-1.4c0.3-0.5-0.2-1.4,0-2
				c0.6-1.7,1-2.5,1-4.5c0-2.7,0-5.3,0-8c0-1.4-0.2-3.1,0-4.5c0.1-0.6-0.2-1.4,0-2c0.2-0.8,1.3-0.7,1.5-1.3c0.7-2.1,0.5-5.1,0.5-7.8
				c0-4.5,1.6-12.4,0-16.5c-0.3-0.9-1.6-0.8-2-2c-0.2-0.4,0-1.6,0-2c0-1.8-0.8-2.6-1-4c-0.1-0.5,0.2-1.6,0-2c0.1,0.1-1.3-2.2-1-1.5
				c0.1,0.2-1.2-1.8-1-1.5c-0.2-0.4,0.1-1.6,0-2c-0.4-1-3-1.7-3.5-2.8c-0.6-1.1-0.5-2.3-0.5-3.8c0-1.1,0.3-3,0-4
				c-0.2-0.6-2.1-2.2-2.5-2.8c-0.6-0.8-1-1.1-1.5-1.8c-0.3-0.5,0.2-1.5,0-2c-0.2-0.5-1.8-0.5-2-1c-0.3-0.7,0.3-1.8,0-2.5
				c-0.3-0.6-1.3-0.8-1.5-1.3c0-0.1-0.4-1.6-0.5-1.8s-0.5-1.6-0.5-1.8c-0.2-0.5-1.3-0.5-1.5-1.3c-1.4-4.5,0-11.8,0-16.5
				c0-1.4,0.5-3.7,0-5c-0.2-0.5-1.8-0.5-2-1c-0.2-0.6,0.2-1.4,0-2c-0.5-1.3-0.3-2.8-1-4c-0.7-1.3-2.5-0.3-2-2.5h-6c0-0.7,0-1.3,0-2
				h-6c0.5-2.7-3.9-1.5-5-4h-6c0.4-2.5-2.6-1.6-2-4h-4c0.4-2.5-2.6-1.6-2-4h-2c0-0.3,0-0.7,0-1h-3c0-0.7,0-1.3,0-2h-14
				c0-0.7,0-1.3,0-2h-5c0-0.7,0-1.3,0-2h-27c0,0.7,0,1.3,0,2h-4c0,0.7,0,1.3,0,2h-4c0,0.7,0,1.3,0,2h-21c0,0.3,0,0.7,0,1h-7
				c0.6,3.4-4.7,0.6-4,4h-11c0.6,3.4-4.7,0.6-4,4h-4c0.4,2.5-2.6,1.6-2,4h-2c0,0.7,0,1.3,0,2c0.2,1.7-1.7,2.7-2.5,3.8
				c-0.8,1-1.1,0.6-1.5,1.8c-0.3,0.7,0.2,1.7,0,2.5c-0.3,1-1.7,0.8-2,1.5c-0.3,0.7,0.2,1.7,0,2.5c-0.7,3,0.3,1.6-2.5,3.3
				c-0.9,0.6-0.4,0.9-1.5,1.4c-0.8,0.4-1.7,0.3-2.5,0.6c-0.9,0.4-0.4,0.9-1.5,1.4c-0.8,0.3-1.7,0.3-2.5,0.6
				c-0.9,0.4-0.4,0.9-1.5,1.4c-0.8,0.3-1.7,0.3-2.5,0.6c-0.9,0.4-0.4,0.9-1.5,1.4c-0.8,0.3-1.7,0.3-2.5,0.6
				c-4.1,2-2.5,11.5-2.5,16.1c0,1.4-0.5,3.7,0,5c0.6,1.6,1.5,1.7,2,3.5c0.7,2.6-0.9,6,0,8.5c0.5,1.4,3,1.2,2,4c-0.2,0.5-1.8,0.5-2,1
				c-0.1,0.4,0.2,1.6,0,2c-0.8,1.3-1.3,2.1-2,3.5c-0.4,0.7-0.9,3.9-1,4.5c-0.4,2.9,0,6.1,0,9c0,0.4,0.2,1.6,0,2
				c-0.3,0.9-0.7,0.9-1,1.5c-0.6,1.5-1,1.9-1,4c0,1.4-0.4,3.6,0,5c0.5,1.8,1.4,1.9,2,3.5c0.9,2.6,0,6.1,1.5,8.3c1.6,2.2,3.2,0.2,3,3
				c0,0.3-1.3,0.7-1.5,1.3c-0.2,0.6,0.1,1.4,0,2c-0.3,2.4-0.4,6.1,0,8.5c0.4,2.3,1.3,2.1,2,4c0.5,1.3-0.4,3.2,0,4.5
				c0.2,0.8,1.3,0.7,1.5,1.3c0.2,0.6,0.3,1.3,0.5,2.3c0.2,1.2,0,2.7,0,4c0,1.4-0.5,3.7,0,5c0.2,0.5,1.8,0.5,2,1c0.1,0.4-0.2,1.6,0,2
				c0.3,0.5,1.2,1.2,1.5,1.8c0.2,0.4,0.3,1.5,0.5,1.8c0.9,1,2.3,1.2,2,3h6c-0.4,1.8,1.3,1.9,2,3c0.9,1.4,0.9,2.2,1,4
				c0.2,2.6,0,5.4,0,8c-0.4,2.3,1.5,1.1,2,2.5c0.4,1,0,2.9,0,4c0,2.3,0,4.7,0,7c0,4.8,0,9.7,0,14.5c0,1,0.3,2.6,0,3.5
				c-0.5,1.3-1.3,1.9-2,3c-0.5,0.8-0.4,2-1,3c-0.7,1.1-1.6,1.8-2,3c0,0.7,0,1.3,0,2c0.3,0.9,0,1.4-1,1.5c0.2-0.5-1.2,2.8-1,2.5
				c-0.9,1.4-4.3,3.5-4,5.5h-12c0,1.7-1,2.3-1,4h-6c0,0.7,0,1.3,0,2h-10c-1.5,0.7-3.4,1.1-3,3h-9c0,15.7,0,31.3,0,47h813
				c0-8,0-16,0-24c0-1-0.3-2.6,0-3.5c0.3-0.8,1.6-0.9,2-2c0.5-1.5,0-4.4,0-6c0-3.8,0-7.7,0-11.5h2c0-1,0-2,0-3c0-0.7,0-1.3,0-2
				c0-1.3,0-2.7,0-4c0-1.3,0-2.7,0-4h2c0-0.7,0-1.3,0-2c0-0.7,0-1.3,0-2c0-0.7,0-1.3,0-2c0-0.7,0-1.3,0-2h2c0-0.3,0-0.7,0-1
				c0-0.7,0-1.3,0-2c0-1.3,0-2.7,0-4c-0.4-2.3,1.5-1.1,2-2.5c0.3-0.8,0-2.6,0-3.5c0-1.5,0.1-2.7,0.5-3.8c0.2-0.5,1.2-0.6,1.5-1.3
				c0.2-0.6-0.1-1.4,0-2c0.2-2.9,0.1-5,1-7.5c0.2-0.6,0.3-1.8,0.5-2.3c0.1-0.4,1.4-0.4,1.5-0.8c0.4-1,0-2.9,0-4c0-3.5,2-3.5,2-7
				c0-3.1,1.5-3.3,2-6c0.4-2.1-0.7-5,0-7c0.2-0.5,1.8-0.5,2-1c0.2-0.5-0.1-1.5,0-2c0.2-0.9,0-2,0-3c0-3.2,1.5-3.2,2-6
				c0.1-0.6-0.2-1.4,0-2c0.3-0.7,0.8-1,1-1.5c0.4-1,0.8-1.1,1-2.5c0.2-1.1-0.3-2.4,0-3.5c0.5-1.7,1.1-1.2,2-2.5c0.3-0.5-0.3-1.5,0-2
				c0.3-0.5,1.8-0.4,2-1c0.3-0.8,0-2.2,0-3c0-2.3,0-4.7,0-7c0-1.1-0.4-3,0-4c0.4-1.1,1.7-1.2,2-2c0.6-1.7,0-5.2,0-7
				c0-2.3-0.4-4.8,0-7c0.2-1,0.9-2.1,1-3.5c0.1-1.1-0.2-2.4,0-3.5c0.5-2.8,2-2.8,2-6c0-0.9-0.3-2.7,0-3.5c0.4-1.1,1.5-1.2,2-2.5
				c1.3-3.5,0-9.8,0-13.5c0-1.3,0-2.7,0-4c0-3.8,0-7.7,0-11.5c0-0.9,0.3-2.2,0-3c-0.3-0.8-1.8-0.4-2-1.5c-0.7-3.2,1-2.2,3-3.3
				C2003.2,904.2,2005.4,902.5,2005,900.6z M1667,935.6c-1.4,2.3-3.6,3.8-5.5,5.8c-0.9,0.9-1.8,2.2-2.5,3.3c-0.3,0.5,0.2,1.5,0,2
				c-0.2,0.4-1.6,0.6-2,1c-1.8,1.8-2.7,4.4-4.5,6.3c-1.6,1.6-4.5,3.3-5.5,5.3c-0.6,1.2-0.2,2.2-1,3.5c-0.6,0.9-1.4,1.6-2,2.5
				c-0.4,0.6,0.3,1.8,0,2.5c-0.2,0.4-1.6,0.6-2,1c-0.5,0.5-1.5,1.9-2,2.5c-0.3,0.3-0.2,1.3-0.5,1.8c-0.3,0.4-1.2,0.4-1.5,0.8
				c-0.6,0.6-1.5,2.2-2,3c-0.3,0.5,0.2,1.5,0,2c-0.2,0.5-1.8,0.5-2,1c-0.7,1.8,0,2-1,3.5c-0.5,0.8-2.1,1.4-2.5,2.3
				c-0.5,0.9-0.1,2.1-0.5,3.3c-0.3,0.7-1.7,0.6-2,1.5c-0.2,0.4,0.2,1.1,0,1.5c-0.5,1.3-0.5,2.7-1,4c-0.2,0.6,0.2,1.4,0,2
				c-0.1,0.4-1.3,0.4-1.5,0.8c-0.4,1-0.5,1.9-0.5,3.3c0,2.2,0.8,6,0,8c-0.2,0.5-1.8,0.5-2,1c-0.2,0.6,0.2,1.4,0,2
				c-0.2,0.4,0.2,1.1,0,1.5c-0.3,0.7-1.3,0.7-1.5,1.3c-1.5,3.8-0.5,10.3-0.5,14.8c0,1.1,0.4,3.4,0,4.5c-0.5,1.3-1.6,1.3-2,2.5
				c-0.7,1.9,0,5.5,0,7.5c0,4.8,0,9.7,0,14.5h-4c0.5-3.6-6.7-4.5-6-8h-5c0-0.3,0-0.7,0-1h-8c0-0.7,0-1.3,0-2h-6c0-0.7,0-1.3,0-2h-5
				c0.5-3-7-2.1-6-6c0-1.3,0-2.7,0-4h2c0-4.2,2.2-5.1,4-8c0.4-0.6-0.3-1.8,0-2.5c0.3-0.9,1.6-0.8,2-2c0.4-1.2,0-3.2,0-4.5
				c-0.4-2.3,1.5-1.1,2-2.5c0.3-0.8,0-2.6,0-3.5c0-2.6,0.7-4.3,1-6.5c0.2-1.1-0.2-2.4,0-3.5c0-0.5,0-1,0-1.5c-0.3-0.9,0-1.4,1-1.5
				c0.6-1.4,0.7-0.6,1-2.5c0.2-1.1,0-2.4,0-3.5c0-2.2,0-4.3,0-6.5c0-3.9-0.9-9.6,1-12.5c0.8-1.2,1.9-1.4,3-2.5c0.7-0.7,1.6-1.6,2-2
				c1.3-1.3,4.4-2.2,4-4.5h6c0-3.8,2.6-5.7,3-9c0.2-1.3-0.5-3.2,0-4.5c0.3-0.9,1.6-0.8,2-2c0.2-0.6-0.2-1.4,0-2c0.7-1.8,1.6-1.7,2-4
				c0.3-1.5,0-3.4,0-5c0-3.2,0-6.3,0-9.5h2c0,1,0,2,0,3h10c0-1,0-2,0-3c0-2.4,1.1-4,1-6h25c-0.4,2.5,2.6,1.6,2,4h10
				c-0.3,1.5,1.4,2.4,2,3.5C1667.5,932.5,1667.8,934.2,1667,935.6z"/>
		</g>
	</g>
	<g id="slickrickkk.psd">
		<g>
			<g>
				<defs>
					<rect id="SVGID_5_" x="2787" y="260.1" width="849" height="878.8"/>
				</defs>
				<clipPath id="SVGID_6_">
					<use xlink:href="#SVGID_5_"  style="overflow:visible;"/>
				</clipPath>
				<g style="clip-path:url(#SVGID_6_);">
					
						<image style="overflow:visible;" width="650" height="788" id="Layer_0_1_" xlink:href="18B422BD.png"  transform="matrix(1.1026 0 0 1.1026 2856.4636 269.9859)">
					</image>
				</g>
			</g>
		</g>
		<defs>
			<filter id="Adobe_OpacityMaskFilter_2_" filterUnits="userSpaceOnUse" x="2855.9" y="270.1" width="717.5" height="869">
				<feFlood  style="flood-color:white;flood-opacity:1" result="back"/>
				<feBlend  in="SourceGraphic" in2="back" mode="normal"/>
			</filter>
		</defs>
		<mask maskUnits="userSpaceOnUse" x="2855.9" y="270.1" width="717.5" height="869" id="SVGID_7_">
			<g class="st15">
				
					<image style="overflow:visible;" width="723" height="873" xlink:href="18B422B3.jpg"  transform="matrix(1 0 0 1 2853 268.0625)">
				</image>
			</g>
		</mask>
		<g class="st16">
			<path class="st1" d="M3573,830.6c0-3.3,0-6.7,0-10c0-2.4,0.9-6.7,0-9c-0.1-0.4-1.8-1.7-2-2c-0.3-0.5,0.2-1.5,0-2
				c-0.3-0.7-1.7-0.6-2-1.5c-0.2-0.6,0-1.8,0-2.5c0-1.8-0.5-2.4-1-3.5c0.1,0.2-1-2.6-1-2.5c-0.4-0.5-0.6-0.8-1-1.3
				c-1.1-1.5-1.2,0.3-2-1.7c-0.2-0.4,0-1.5,0-2c0-1.7,0-3.3,0-5c0-2.9,0.5-6.2,0-9c-0.4-2.4-1.4-2.3-2-4.5c-0.3-1.3,0-3.1,0-4.5
				c0-2.1,0.4-3,1-4.5c0.5-1.1,1-1.7,1-3.5c0-4.2,1.2-1.4,3-4c0.5-0.7,0-3.1,0-4c0-0.7-0.2-1.9,0-2.5c0.3-0.9,1.7-0.8,2-1.5
				c0.4-1.2,0-3.3,0-4.5c0-1.4-0.5-4.2,0-5.5c0.2-0.5,1.8-0.5,2-1c0.3-0.7-0.3-1.8,0-2.5c0.2-0.5,0.9-1.7,1-2c0.3-0.6,0.7-0.6,1-1.5
				c0.4-1.1,0-3.3,0-4.5c0-6.3,0-12.7,0-19c0-3.8,0-7.7,0-11.5c0-0.7,0.2-2.4,0-3c-0.4-1.2-1.7-1.1-2-2c-0.5-1.4,0-4,0-5.5
				c0-1,0-2,0-3h-2c0.9-3.8-7.6-4.1-7-8h-2c0-1,0-2,0-3h-2c0.4-2.5-2.6-1.6-2-4h-5c0-0.7,0-1.3,0-2h-7c0-0.7,0-1.3,0-2h-11
				c0-1,0-2,0-3h-28c0.4-2.4-4.2-4.5-5.5-5.8c-1-1-2.7-1.6-3.5-2.8c-0.3-0.4,0.3-1.7,0-2c-0.5-0.4-1.5-0.1-2-0.5
				c-2.2-1.7-4.8-2.3-7-4.5c-1.4-1.4-4.4-4-4-6.5h-5c0.6-3.4-4.7-0.6-4-4h-7c0.6-3.4-4.7-0.6-4-4h-18c0-1,0-2,0-3h-24
				c0.4-2.5-2.6-1.6-2-4h-7c0.5-2.4-3.3-3.2-4-5c-0.4-1,0.2-2.4,0-3.5c-0.1-0.6,0.2-1.4,0-2c-0.1-0.4-1.3-0.4-1.5-0.8
				c-1.6-4,1.2-10.2-0.5-14.3c-0.6-1.6-1.6-0.6-2.5-1.8c-0.6-0.9-0.3-1.4-0.5-2.7c-0.2-1.1-0.2-1.9-0.5-2.8
				c-0.2-0.4-1.4-0.4-1.5-0.8c-0.2-0.4,0.2-1.1,0-1.5c-0.2-0.6,0.2-1.4,0-2c-0.2-0.6-0.8-0.6-1-1c-0.1-0.3-0.8-0.7-1-1
				c-0.2-0.4,0.2-1.1,0-1.5c-0.2-0.3-1.9-1.7-2-2c-0.3-0.9,0.3-2.1,0-3c-0.2-0.5-1.7-0.5-2-1c-0.2-0.3,0.2-1.3,0-1.5
				c-0.3-0.2-2.2-0.9-2.5-1.3c-1.2-1.6,0.2-4.2-0.5-6.2c-0.5-1.3-1.6-1.4-2-2.5c-0.3-0.8,0.1-2.1,0-3c-0.2-2.5-1-3.2-2.5-4.8
				c-0.9-0.9-1.8-1.2-2.5-2.3c-0.1-0.2-1-2.5-1-2.5c-0.6-0.6-2.5-0.3-3-1c-0.5-0.6,0.3-2.2,0-3c-0.1-0.2-2.3-2.1-2.5-2.3
				c-0.9-0.9-1.3-1.2-2-2c-0.3-0.4-1.2-0.3-1.5-0.8c-0.2-0.3,0.2-1.3,0-1.5c-0.6-0.5-1.7-0.7-2.5-1.3c-1.4-1-3.2-3.2-4.5-4.7
				c-1.2-1.4-2.8-2.6-4-4c-0.4-0.4,0-1.2-0.5-1.7c-0.3-0.3-1.2-0.2-1.5-0.5c-0.8-0.7-1.1-1-2-1.8c-1-0.9-3.4-2.2-3-4h-7
				c0.2-1.6-0.6-1.1-1-2c-0.1-0.2-1.2-2.6-1-2.5c-1.4-1.2-4.6,0.3-4-2.5h-5c0.7-3.6-9.2-2.2-8-7h-11c0-0.7,0-1.3,0-2h-18
				c0.4-2.5-4-3-4-4.5c0-2.1,1-0.6,2-2c0.5-0.7,0.5-1.8,1-2.5c1-1.5,3-2.5,4-4c1.2-1.8,0.2-3.4,1-5.5c0.8-1.9,3.5-1.9,4.5-3.8
				c0.5-1,0.1-2.1,0.5-3.3c0.3-0.9,1.6-0.8,2-2c0.3-0.9-0.3-2.1,0-3c0-0.1,1.9-1.8,2-2c0-0.7,0-1.3,0-2c0.5-0.3,1-0.5,1.5-0.8
				c0.2-0.6,0.3-1.3,0.5-2.3c0.2-0.9-0.5-3.3,0-4c0.3-0.5,1.7-0.2,2-0.7c1.1-1.5,1-2.9,1-5.3c0-2.8-1-7.4,0-10c0.5-1.5,1.5-1.5,2-3
				c0.3-0.9-0.3-2.1,0-3c0.2-0.5,1.8-0.5,2-1c0.3-0.7,0-2.2,0-3c0-2.3,0.4-2.9,1-4.5c0.4-1.1,0.7-0.9,1-2.5c0.1-0.8,0-1.7,0-2.5
				c0-7.5,0-15,0-22.5c0-1.7,0.6-4.5,0-6c-0.4-1.1-3.6-1.9-4-3c-1-2.7,0-8.1,0-11c0-3.2-1.2-2.7-2-5c-0.5-1.5,0.3-3.5,0-5
				c-0.5-2.6-1.7-2.2-3-4c-0.3-0.4,0.2-1.5,0-2c-0.3-0.9-1.6-0.8-2-2c-0.8-2.2,0.2-3.7-1-5.5c-1.3-2-2.5-1.8-3-4.5
				c-0.4-2.1,0.1-2.9-1-4.5c-0.9-1.3-3.2-1.3-4-2.5c0-0.7,0-1.3,0-2c0.3-0.9,0-1.4-1-1.5c0.1,0.3-1.1-2.1-1-2
				c-1.2-1.5-2.6-2.1-4-3.5c-0.9-0.9-2-2.4-3-3.3c-0.7-0.2-1.3-0.4-2-0.7c0-0.3,0-0.7,0-1c0.6,0.5-1.2-1.7-1-1.5
				c-1.2-1.9-3.2-2.9-5-4.5c-0.7-0.6-2.3-2.4-3-3c-1.5-1.4-2-2-3-3.5c-0.9-1.3-3.4-1.9-3-4h-5c0.6-4.4-7-2.6-6-7h-7
				c0.3-2.1-2.9-3.7-4-5c-1.4-1.8-3.3-2.7-5-4c0-0.5,0-1,0-1.5c-0.7-0.3-1.3-0.7-2-1c-0.5-0.5-1.5-2.5-2-3c-1.3-1.3-4.4-2.2-4-4.5
				h-5c0-1,0-2,0-3h-2c0.6-3.2-7.8-2.3-7-6h-6c0-0.7,0-1.3,0-2h-5c0.7-3.8-4.6-4-4-7h-5c0-0.7,0-1.3,0-2h-17c0-0.7,0-1.3,0-2h-5
				c0.7-3.1-2.6-2.6-2-5h-20c0-0.7,0-1.3,0-2h-46c0,0.7,0,1.3,0,2h-22c0.5,2.2-2.6,2.1-2,5h-11c0,0.7,0,1.3,0,2h-5c0,0.7,0,1.3,0,2
				h-2c0.7,3-4.8,3.2-4,7h-11c0,0.7,0,1.3,0,2h-2c0.7,2.7-5.7,2.7-5,6h-6c0,1,0,2,0,3h-5c0.5,2.8-3.3,2.6-4,4.5
				c-0.3,0.7,0.4,2.4,0,3c-0.3,0.4-2.8,1.3-3,1.5c0,0.5,0,1,0,1.5c-0.6,0.3-1.3,0.6-1.9,1c-0.2,0.3-2.3,2.7-2.1,2
				c-0.3,0.9,0.3,2.1,0,3c-0.5,1.5-2.4,0.1-2,2.5c0.5,2.3-1,1.9-1.5,3.3c-0.4,1.1-0.5,2.3-0.5,3.8h-3c0.4,2.3-1.5,1.1-2,2.5
				c-0.3,0.9,0.3,2.1,0,3c-0.4,1.1-1.7,1.2-2,2c-0.3,0.9,0.3,2.1,0,3c-0.1,0.3-1.7,1.6-2,2c0,0.7,0,1.3,0,2c-0.3,0.2-0.7,0.3-1,0.5
				c-1,0.1-1.3,0.6-1,1.5c0,0.5,0,1,0,1.5c-0.5,0.9-0.4,1-1,1.8c-0.6,0.8-2.2,1.4-3,2.2c-0.5,0.5-0.7,1.2-1,1.5
				c-1.7,1.7-1.6,0.5-2,3c-0.1,0.6,0.1,1.4,0,2c0,0.7,0,1.3,0,2c-0.7,0.3-1.3,0.7-2,1c-0.3,0.9,0.3,2.1,0,3c-0.3,0.8-1.6,0.9-2,2
				c-0.3,0.7,0.4,2.4,0,3c-0.5,0.7-2.5,0.3-3,1c-0.4,0.6,0.3,2.3,0,3c-0.3,0.8-1.7,0.5-2,1.5c-0.2,0.7,0,1.8,0,2.5
				c0,0.8,0.3,2.3,0,3c-0.3,0.8-1.7,0.5-2,1.5c-0.5,1.6,0.3,3.8,0,5.5c-0.4,2.5-1.6,2.5-2,5c-0.3,1.5,0,3.4,0,5c0,2.8-0.2,2.4-2,4
				c0.3,0.9,0,1.4-1,1.3c-0.3,0.1-0.7,0.2-1,0.3c-1,1.3-0.7,0.4-1,2.3c-0.6,3.4,0,7.5,0,11c0,0.8,0.3,2.3,0,3c-0.2,0.5-1.8,0.5-2,1
				c-0.7,1.7,0.7,4.3,0,6c-0.3,0.9-1.6,0.8-2,2c-0.3,0.7,0,2.2,0,3c0,1.7,0,3.3,0,5c0,1.4,0.5,3.7,0,5c-0.8,2.2-2,2-2,5
				c0,3.7,0,7.3,0,11c0,3-1,8.3,0,11c0.3,0.7,1.6,1.1,2,2c0.3,0.7,0,2.3,0,3c0,2.3,0.4,2.9,1,4.5c0.4,1,1.6,2.9,2,4
				c1,0.1,1.3,0.6,1,1.5c0,0.3,0,0.7,0,1c0.6,1.5,0.1,1.1,1,2.3c0.3,0.1,0.7,0.2,1,0.3c1,0,1.3,0.4,1,1.3c0.8,0.7,1.5,1.5,2,2
				c1.4,1.4,2.6,1.6,4,3c0.1,0.1,1.8,1.7,2,2c0.1,0.2-0.2,1.8,0,2c1.7,1.5,3.4,1.4,5,3c0.5,0.5,1.1,1.2,2,2c-0.3,0.9,0,1.3,1,1.3
				c0.3,0.1,0.7,0.2,1,0.3c1.3,1,3,0.8,4,2.2c0.6,0.8,0.5,1.5,1,2.3c0.2,0.3,1.9,0.6,2,1c0.5,1.4,0,4,0,5.5c0,0.7,0,1.3,0,2h-2
				c0,2.3,0,4.7,0,7c-0.4,2,1.5,1.6,2,3c0.4,1,0,2.9,0,4c0,2.3,0,4.7,0,7c0,1.1-0.2,2.4,0,3.5c0.1,0.6-0.2,1.4,0,2
				c0.2,0.5,1.8,0.5,2,1c0.4,1,0.2,2.4,0.5,3.3c0,0.1,1.4,1.2,1.5,1.3c0.2,0.3-0.2,1.2,0,1.5c1,1.5,1.5,0.6,2,2.5
				c0.2,0.9-0.5,2.8,0,3.5c1.2,1.6,4.2,1.3,5,3.5c0.8,2.3-0.3,4.1,1,6c0.5,0.8,2.1,1.4,2.5,2.3c0.4,0.8,0.1,1.8,0.5,2.8
				c0.9,2.2,2,2.4,3.5,4c0.5,0.6,1.1,0.4,1.5,1c0.2,0.3-0.2,1.2,0,1.5c0.2,0.3,1.9,1.8,2,2c0.6,1.6,0,4.8,0,6.5c0,0.9-0.3,2.6,0,3.5
				c0.3,0.8,1.6,0.9,2,2c0.6,1.5,0,4.3,0,6c0,1-0.3,2.5,0,3.5c0.4,1.6,0.9,1.1,1.5,2.3c0.4,0.7,0.5,1.8,1,2.4c1,1.3,1.8,0.1,2.5,1.8
				c0.2,0.5,0.2,3.1,0,3.5c-0.6,1-1.7,0.5-2.5,1.3c-0.7,0.7-0.2,1.7-1,2.3c-0.7,0.6-2.2,0.3-3,0.8c-0.4,0.2-1.8,1.5-2.5,2.1
				c-0.4,0.4,0.2,0.7-0.5,1.2c-0.4,0.3-1.1,0.2-1.5,0.5c-1.2,1.1-2.6,2.9-4,3.6c-0.6,0.3-1.9,0.2-2.5,0.6c-0.5,0.4-0.1,0.8-0.5,1.1
				c-0.4,0.3-1.3,1.4-2,2c-0.4,0.4,0.2,0.7-0.5,1.2c-0.3,0.2-1.2,0.2-1.5,0.5c-0.6,0.8-1.4,0.2-1,1.8h-4c0.4,2.5-2.6,1.6-2,4h-2
				c0,1,0,2,0,3h-5c0.4,2.5-2.6,1.6-2,4h-2c0.4,2.5-2.6,1.6-2,4h-3c0.5,2.3-1,1.9-1.5,3.3c-0.4,1.1-0.1,2.4-0.5,3.8
				c-0.4,1.7-0.9,1.9-2,3c-0.2,0.2-1.3,0.9-1.5,1.3c-0.3,0.5-0.2,1.4-0.5,1.8c-1.7,2.1-4,3.3-6,5c-1.2,1-1.7,1-3,2
				c-1.1,0.8-2.5-0.1-2,2h-5c0,1,0,2,0,3h-2c0,0.7,0,1.3,0,2h-2c0,0.7,0,1.3,0,2h-2c0.4,2.5-2.6,1.6-2,4h-7c0,1,0,2,0,3h-7
				c0.8,4.6-9.8,3.9-9,8h-6c0,1,0,2,0,3h-5c0.4,1.8-3.5,4.5-4.5,5.8c-1.7,2.1-3,3.5-5,5.3c-2,1.7-3.7,3.7-5.5,5.5
				c-0.5,0.5-1.6,0.5-2,1c-0.3,0.5,0.3,1.5,0,2c-0.8,1.3-2.5,0.4-2,2.5h-5c-1.1,1.9-3,3.2-4,5c-1,1.9-0.7,3.1-2.5,4.8
				c-1.5,1.4-3.6,2.4-5,4c-1.6,1.9-1.3,1.6-1.5,4.3c-0.3,2.8-1.2,2.3-2,4.5c-0.3,0.7,0.2,1.7,0,2.5c-0.3,1-0.7,1.3-1,2
				c0.1-0.1-1.3,2.3-1,2c-0.1,0.1-1.9,1-2,1.2c-1.2,1.6-0.2,2.2-1,4.3c-0.7,1.9-1.6,1.7-2,4c-0.3,1.6,0,3.4,0,5c0,3.2,0.5,6.9,0,10
				c-0.3,2-1.1,2.6-2,4c0.2-0.3-1.2,3-1,2.5c-0.3,0.6-0.7,0.6-1,1.5c-0.5,1.4,0.3,3.5,0,5c-0.4,2.2-1.3,2.2-2,4
				c-0.5,1.4,0.3,3.5,0,5c-0.5,2.9-1,0.8-2.5,2.8c-1.2,1.6-0.5,5.9-0.5,8.2c0,2.2-0.4,3-1,4.5c-0.6,1.5-1,1.7-1,4c0,2.8,0,5.7,0,8.5
				c0,12,0,24,0,36c0,2.5-0.9,6.7,0,9c0.3,0.7,1.7,0.6,2,1.5c0.2,0.6,0,1.8,0,2.5c0,1.3,0,2.7,0,4c0,0.7,0.2,2.4,0,3
				c-0.2,0.5-1.8,0.5-2,1c-0.4,1,0,2.9,0,4c0,1.2,0.4,3.3,0,4.5c-0.4,1.5-1.2,2.3-2,3.5c0.2-0.3-1.2,3-1,2.5c-0.3,0.6-0.7,0.6-1,1.5
				c-0.4,1,0,2.9,0,4c0,3,0,6,0,9s0,6,0,9c0,1.5-0.1,3,0,4.5c0.1,0.7-0.3,1.8,0,2.5c0.2,0.5,1.8,0.5,2,1c0.6,1.5,0.6,7.5,0,9
				c-0.4,1-1.8,2.5-2.5,3.3c-0.9,0.9-2.8,1.5-3.5,2.4c-1.5,2-3,4.4-4,6.8c-0.4,0.9-1.1,2.7-1.5,3.8c-0.3,0.7-1.1,0.8-1.5,1.8
				c-0.2,0.4,0,1.6,0,2c0,0.7,0.3,2.5,0,3c-0.3,0.5-1.7,0.2-2,0.7c-0.8,1.1-1,1.4-1,3.3c0,3,0,6,0,9c0,6,0,12,0,18c0,3,0,6,0,9
				c0,1.5-0.2,3.2,0.5,4.2c1.5,2,2,0,2.5,2.8c1,5.6,0,12.3,0,18c0,0.7,0.3,2.5,0,3c-0.3,0.5-1.7,0.2-2,0.7c-0.8,1.1-1,1.4-1,3.3
				c0,2.5,0.8,6.7,0,9c-0.7,1.9-1.6,1.7-2,4c-0.2,1.3,0,2.7,0,4c0,2.8,0,5.7,0,8.5c0.4,2.5-2.6,1.6-2,4c0.5,2.3-1,1.9-1.5,3.3
				c-0.4,1.1,0,2.9-0.5,4.3c-0.5,1.4-1.5,1.6-2,3c-0.4,1,0,2.9,0,4c0,0.4,0.2,2.1,0,2.5c-0.4,0.7-1,0.4-1.5,1
				c-0.5,0.6-1.1,0.3-1.5,1c-0.2,0.4,0,1.5,0,2c-0.3,2.6,0,5.4,0,8c0,20.3,0,40.7,0,61h671c0-3.3,0-6.7,0-10c0-1.7,0-3.3,0-5
				c0-0.7,0.2-1.9,0-2.5c-0.3-0.9-1.3-1.2-1.5-1.8c-0.4-1.2-0.2-2.7-0.5-4.3c-0.4-2.2,0.1-0.8-1-2.3c-0.3-0.5-1.7-0.2-2-0.7
				c-0.4-0.6,0.3-2.3,0-3c-0.2-0.4-1.6-0.6-2-1c-0.8-0.8-2.3-2.5-3-3.5c-1.1-1.6-0.2-2.5-1-4.5c-0.4-1.1-3.2-2-4-2.7
				c-2.3-2-4.3-4.3-6-6.8c-1.7-2.6-4.8-3.9-7-6c-1.1-1-2-2.5-3-3.5c-0.7-0.7-2.3-2-2-3.5h-11c0.3-1.3-1.8-3.2-2.5-3.7
				c-0.5-0.4-2.1-0.3-2.5-0.8c-0.4-0.6,0.3-1.9,0-2.5c-0.2-0.4-1-1.9-1-2c-0.2-0.5-0.7-0.8-1-1.5c-0.3-0.9,0.3-2.1,0-3
				c-0.3-0.7-0.8-1-1-1.5c-0.1-0.1-0.8-1.6-1-2c-0.3-0.7,0.3-1.8,0-2.5c-0.6-1.6-3.1-1-2-4c1.1-2.9,7-1.4,6-5.5h7
				c-0.4-2.5,2.6-1.6,2-4h5c-0.4-1.7,2.3-2.9,3-4c0.5-0.7,0.6-1.8,1-2.5c0.2-0.3,1.9-0.6,2-1c1-2.5-0.4-2.7,2-4.5
				c1.9-1.4,2.5-1,3-3.5c0.3-1.6,0-3.4,0-5c0-3.2,1.1-2.6,2-5c0.5-1.5-0.6-3.5,0-5c-0.1,0.2,2-2.1,2-2c0.2-0.3,0.4-2,0.5-2.3
				c0.3-0.9,1.1-0.9,1.5-2.3c0.2-0.8-0.1-1.7,0-2.5c0.4-2.2,1.4-2.2,2-4c0.5-1.3,0-4.1,0-5.5c0-3.4-0.1-2.3,2-4.2
				c1.1-1,2.4-1.8,3-3.3c0.5-1.3,0-4.1,0-5.5c0-3.2,0.1-2.6,2-4.5c-0.2,0.2,2.1-2.1,2-2c0.3-0.5-0.3-1.5,0-2c1.2-1.7,3.2-1.9,5-3
				c0.4-0.3,1.6-2.6,2-3c1.2-1.2,3.1-1.7,4-3c0.3-0.5-0.3-1.5,0-2c0.1-0.1,2-1.5,2-1.5c2.6-1.9,4.8-3.6,7-6c0.3-0.3,1.7-1.1,2-1.5
				c0.3-0.5-0.3-1.5,0-2c0.2-0.3,1.9-0.6,2-1c0.2-0.6-0.4-2,0-2.5c0.6-0.8,2.4-0.7,3-1.5c0.3-0.4-0.3-1.6,0-2c0.8-1.2,1.6-2,2-3.5
				c0.4-1.4-0.5-3.2,0-4.5c0.2-0.5,1.7-0.9,2-1.5c0.3-0.7-0.3-1.8,0-2.5c0.3-0.8,1.6-0.9,2-2c0.2-0.4,0-1.6,0-2c0-0.9-0.5-4.3,0-5
				c0.9-1.2,2.3-0.4,3-2c0.3-0.7-0.2-1.8,0-2.5c0.3-1,1.7-0.7,2-1.5c0.6-1.5-0.6-3.5,0-5c0.3-0.7,1.7-0.7,2-1.5c0.2-0.6,0-1.9,0-2.5
				c0-0.4-0.2-1.6,0-2c0.4-1,1.2-1.1,1.5-1.8c0.5-1.2,0.5-2.7,0.5-4.3c0-1.5-0.5-4.1,0-5.5c0.3-0.8,1.7-0.8,2-1.5
				c0.2-0.5-0.3-1.6,0-2c0.7-0.9,2.4-1.5,3-2.5c0.5-0.9,0-3.4,0-4.5c0-1.9,0-3.8,0.5-5.3c0.2-0.6,1.2-0.8,1.5-1.8c0.2-0.4,0-1.5,0-2
				c0-3,0-6,0-9c0-2,0-4,0-6c0-1.8,0.5-2.4,1-3.5c0.6-1.5,1-2.4,1-4.5c0-1.4-0.3-3.2,0-4.5c0.6-2.2,1.6-2.1,2-4.5
				c0.2-1.4,0-3.1,0-4.5C3573,836.9,3573,833.7,3573,830.6z M3037,310.6C3037,310.6,3037,310.5,3037,310.6
				C3037.1,310.5,3037.1,310.5,3037,310.6z"/>
		</g>
	</g>
	
		<image style="overflow:visible;" width="268" height="268" xlink:href="18B422B5.jpg"  transform="matrix(0.7724 0 0 0.7724 2547 581.0625)">
	</image>
	
		<image style="overflow:visible;" width="220" height="220" xlink:href="18B422B7.jpg"  transform="matrix(0.9591 0 0 0.9591 2547 820.0625)">
	</image>
	<g>
		<path class="st2" d="M-139.5,2507.1h-284.3c0.5,1.4,0.8,2.9,0.8,4.5s-0.3,3.1-0.8,4.5h284.3c2.5,0,4.5-2,4.5-4.5
			S-137,2507.1-139.5,2507.1z"/>
		<path class="st1" d="M-423.8,2507.1c-1.9-5.2-6.8-9-12.7-9s-10.9,3.8-12.7,9h-86.3c-2.5,0-4.5,2-4.5,4.5s2,4.5,4.5,4.5h86.3
			c1.9,5.2,6.8,9,12.7,9s10.9-3.8,12.7-9c0.5-1.4,0.8-2.9,0.8-4.5S-423.3,2508.5-423.8,2507.1z"/>
	</g>
	<g id="old_school_2_">
		<g id="Line_17_">
			<rect x="-540" y="2467" class="st2" width="27.3" height="1.9"/>
		</g>
		<g>
			<text transform="matrix(1 0 0 1 -540 2458.1582)" class="st3 st9" style="font-size:29.163px;">J Dilla - Sounds like Love (Instrumental)</text>
		</g>
	</g>
	<g id="old_school_4_">
		<g>
			<text transform="matrix(1 0 0 1 -189 2550.1582)" class="st3 st9" style="font-size:29.163px;">3:26</text>
		</g>
	</g>
	
		<image style="overflow:visible;" width="246" height="286" xlink:href="../../../../../../../Puush/ss (2019-03-20 at 03.01.31).jpg"  transform="matrix(1.1911 0 0 1.1911 -536 2586.0625)">
	</image>
	<path class="st8" d="M1.6,2534.6h-11c-3,0-5.5-2.5-5.5-5.5v-40.3c0-3,2.5-5.5,5.5-5.5h11c3,0,5.5,2.5,5.5,5.5v40.3
		C7.1,2532.1,4.7,2534.6,1.6,2534.6z M36.4,2529.1v-40.3c0-3-2.5-5.5-5.5-5.5h-11c-3,0-5.5,2.5-5.5,5.5v40.3c0,3,2.5,5.5,5.5,5.5h11
		C34,2534.6,36.4,2532.1,36.4,2529.1z"/>
	<path class="st2" d="M90,2496.8v24.3c0,0.4-0.3,0.7-0.7,0.7h-2.7c-0.4,0-0.7-0.3-0.7-0.7V2511l-11.2,10.4c-1.2,1-3,0.2-3-1.4v-22
		c0-1.6,1.8-2.4,3-1.4l11.2,10.3v-10c0-0.4,0.3-0.7,0.7-0.7h2.7C89.7,2496.1,90,2496.4,90,2496.8z"/>
	<path class="st2" d="M-71.6,2521.1v-24.3c0-0.4,0.3-0.7,0.7-0.7h2.7c0.4,0,0.7,0.3,0.7,0.7v10.1l11.2-10.4c1.2-1,3-0.2,3,1.4v22
		c0,1.6-1.8,2.4-3,1.4l-11.2-10.3v10c0,0.4-0.3,0.7-0.7,0.7h-2.7C-71.3,2521.7-71.6,2521.4-71.6,2521.1z"/>
</g>
<g id="Assets">
	
		<image style="overflow:visible;" width="954" height="335" xlink:href="../../../../../../../Puush/ss (2019-03-19 at 07.44.27).png"  transform="matrix(2.0985 0 0 2.0985 -3740 -209.9375)">
	</image>
	<g id="cool_abstract_thingy_1_">
		<rect x="-2511" y="662.1" class="st1" width="216" height="216"/>
		<circle class="st2" cx="-2349" cy="716.1" r="54"/>
		<rect x="-2403" y="590.1" class="st3" width="36" height="72"/>
		<rect x="-2439" y="590.1" class="st2" width="36" height="72"/>
		<rect x="-2691" y="662.1" class="st2" width="36" height="108"/>
		<rect x="-2619" y="536.1" class="st1" width="36" height="126"/>
		<rect x="-2367" y="554.1" class="st4" width="36" height="72"/>
		<circle class="st0" cx="-2349" cy="644.1" r="18"/>
		<rect x="-2439" y="518.1" class="st5" width="72" height="72"/>
		<rect x="-2511" y="590.1" class="st5" width="72" height="72"/>
		<rect x="-2691" y="590.1" class="st5" width="72" height="72"/>
		<rect x="-2583" y="554.1" class="st2" width="72" height="216"/>
		<rect x="-2655" y="662.1" class="st5" width="72" height="216"/>
		<circle class="st4" cx="-2475" cy="554.1" r="36"/>
		<circle class="st4" cx="-2547" cy="806.1" r="36"/>
		<circle class="st4" cx="-2673" cy="788.1" r="18"/>
	</g>
	<rect x="2547" y="104.1" style="fill:none;" width="342" height="576"/>
	<text transform="matrix(1 0 0 1 2547 120.0586)"><tspan x="0" y="0" class="st3" style="font-family:'Roboto-Regular'; font-size:21px;">Ricky Martin Lloyd Walters better </tspan><tspan x="0" y="25.2" class="st3" style="font-family:'Roboto-Regular'; font-size:21px;">known to the world as Slick Rick, is </tspan><tspan x="0" y="50.4" class="st3" style="font-family:'Roboto-Regular'; font-size:21px;">a Grammy nominated, English born </tspan><tspan x="0" y="75.6" class="st3" style="font-family:'Roboto-Regular'; font-size:21px;">performer and the most successful </tspan><tspan x="0" y="100.8" class="st3" style="font-family:'Roboto-Regular'; font-size:21px;">British-American rapper in music </tspan><tspan x="0" y="126" class="st3" style="font-family:'Roboto-Regular'; font-size:21px;">history. Born and raised in the </tspan><tspan x="0" y="151.2" class="st3" style="font-family:'Roboto-Regular'; font-size:21px;">London district of Surrey to Jamai</tspan><tspan x="320.5" y="151.2" class="st3" style="font-family:'Roboto-Regular'; font-size:21px;">-</tspan><tspan x="0" y="176.4" class="st3" style="font-family:'Roboto-Regular'; font-size:21px;">can parents, Rick migrated to the </tspan><tspan x="0" y="201.6" class="st3" style="font-family:'Roboto-Regular'; font-size:21px;">Bronx, enrolled as a graphic arts </tspan><tspan x="0" y="226.8" class="st3" style="font-family:'Roboto-Regular'; font-size:21px;">major at the High School of Music &amp; </tspan><tspan x="0" y="252" class="st3" style="font-family:'Roboto-Regular'; font-size:21px;">Arts. He learned to paint pictures </tspan><tspan x="0" y="277.2" class="st3" style="font-family:'Roboto-Regular'; font-size:21px;">with words and unknowingly creat</tspan><tspan x="322" y="277.2" class="st3" style="font-family:'Roboto-Regular'; font-size:21px;">-</tspan><tspan x="0" y="302.4" class="st3" style="font-family:'Roboto-Regular'; font-size:21px;">ed a persona that encompassed his </tspan><tspan x="0" y="327.6" class="st3" style="font-family:'Roboto-Regular'; font-size:21px;">U.K., U.S. and Caribbean roots.</tspan></text>
</g>
</svg>
