<?xml version="1.0" encoding="utf-8"?>
<!-- Generator: Adobe Illustrator 22.1.0, SVG Export Plug-In . SVG Version: 6.00 Build 0)  -->
<svg version="1.1" id="Layer_1" xmlns="http://www.w3.org/2000/svg" xmlns:xlink="http://www.w3.org/1999/xlink" x="0px" y="0px"
	 viewBox="0 0 750 1334" style="enable-background:new 0 0 750 1334;" xml:space="preserve">
<style type="text/css">
	.st0{display:none;clip-path:url(#SVGID_2_);fill:#333132;stroke:#000000;stroke-miterlimit:10;}
	.st1{clip-path:url(#SVGID_2_);}
	.st2{fill:#FFC600;}
	.st3{fill:#FBFCD4;}
	.st4{fill:#FFFFFF;}
	.st5{fill:#FFDD03;}
	.st6{fill:#333132;}
	.st7{fill:#151515;}
</style>
<g>
	<defs>
		<rect id="SVGID_1_" x="-0.5" y="-0.5" width="751" height="1335"/>
	</defs>
	<clipPath id="SVGID_2_">
		<use xlink:href="#SVGID_1_"  style="overflow:visible;"/>
	</clipPath>
	<rect x="-0.5" y="-0.5" class="st0" width="751" height="1335"/>
	<g id="cool_abstract_thingy_1_" class="st1">
		
			<rect x="-104" y="1258.3" transform="matrix(0.6901 -0.7237 0.7237 0.6901 -1089.8998 681.8713)" class="st2" width="710.5" height="710.5"/>
		<circle class="st3" cx="502.4" cy="1607.6" r="177.6"/>
		
			<rect x="502.5" y="1252.4" transform="matrix(0.6901 -0.7237 0.7237 0.6901 -756.7926 855.8746)" class="st4" width="236.8" height="118.4"/>
		
			<rect x="416.8" y="1170.7" transform="matrix(0.6901 -0.7237 0.7237 0.6901 -724.2104 768.5251)" class="st3" width="236.8" height="118.4"/>
		
			<rect x="-446.6" y="812.9" transform="matrix(0.6901 -0.7237 0.7237 0.6901 -714.5094 75.6229)" class="st3" width="355.3" height="118.4"/>
		
			<rect x="-39.2" y="697.8" transform="matrix(0.6901 -0.7237 0.7237 0.6901 -495.7876 356.2139)" class="st2" width="414.5" height="118.4"/>
		
			<rect x="670" y="1248.4" transform="matrix(0.6901 -0.7237 0.7237 0.6901 -702.0252 975.8063)" class="st5" width="236.8" height="118.4"/>
		<circle class="st6" cx="665.8" cy="1436.2" r="59.2"/>
		
			<rect x="623.1" y="980.9" transform="matrix(0.6901 -0.7237 0.7237 0.6901 -565.8024 877.3641)" class="st7" width="236.8" height="236.8"/>
		
			<rect x="288.3" y="988.9" transform="matrix(0.6901 -0.7237 0.7237 0.6901 -675.3373 637.5007)" class="st7" width="236.8" height="236.8"/>
		
			<rect x="-140.2" y="580.3" transform="matrix(0.6901 -0.7237 0.7237 0.6901 -512.4266 200.753)" class="st7" width="236.8" height="236.8"/>
		
			<rect x="-201.7" y="911.1" transform="matrix(0.6901 -0.7237 0.7237 0.6901 -697.5225 430.2195)" class="st3" width="710.5" height="236.8"/>
		
			<rect x="-618.2" y="1004.8" transform="matrix(0.6901 -0.7237 0.7237 0.6901 -894.4069 157.774)" class="st7" width="710.5" height="236.8"/>
		<circle class="st5" cx="570.1" cy="935.9" r="118.4"/>
		<circle class="st5" cx="-173.3" cy="1372.4" r="118.4"/>
		<circle class="st5" cx="-432.4" cy="1043.5" r="59.2"/>
	</g>
</g>
</svg>
