<?xml version="1.0" encoding="utf-8"?>
<!-- Generator: Adobe Illustrator 23.0.3, SVG Export Plug-In . SVG Version: 6.00 Build 0)  -->
<svg version="1.1" id="Layer_1" xmlns="http://www.w3.org/2000/svg" xmlns:xlink="http://www.w3.org/1999/xlink" x="0px" y="0px"
	 viewBox="0 0 1242 2208" style="enable-background:new 0 0 1242 2208;" xml:space="preserve">
<style type="text/css">
	.st0{fill:#FFC600;}
	.st1{fill:#FBFCD4;}
	.st2{fill:#FFFFFF;}
	.st3{fill:#FFDD03;}
	.st4{fill:#333132;}
	.st5{fill:#151515;}
</style>
<g id="cool_abstract_thingy_2_">
	
		<rect x="-1694.7" y="1569.3" transform="matrix(-0.7071 0.7071 -0.7071 -0.7071 -231.7032 4520.1089)" class="st0" width="1285.5" height="1285.5"/>
	<circle class="st1" cx="-1052" cy="2666.6" r="321.4"/>
	
		<rect x="-628.9" y="2679.5" transform="matrix(-0.7071 0.7071 -0.7071 -0.7071 1155.5132 5308.959)" class="st2" width="214.2" height="428.5"/>
	
		<rect x="-477.4" y="2528.1" transform="matrix(-0.7071 0.7071 -0.7071 -0.7071 1307.0081 4943.2183)" class="st1" width="214.2" height="428.5"/>
	
		<rect x="204.3" y="981.7" transform="matrix(-0.7071 0.7071 -0.7071 -0.7071 1453.1198 2004.2943)" class="st1" width="214.2" height="642.7"/>
	
		<rect x="393.7" y="1723.5" transform="matrix(-0.7071 0.7071 -0.7071 -0.7071 2338.7881 3228.1345)" class="st0" width="214.2" height="749.9"/>
	
		<rect x="-628.9" y="2982.5" transform="matrix(-0.7071 0.7071 -0.7071 -0.7071 1369.7593 5826.1948)" class="st3" width="214.2" height="428.5"/>
	<circle class="st4" cx="-749" cy="2969.5" r="107.1"/>
	
		<rect x="-357.3" y="2906.8" transform="matrix(-0.7071 0.7071 -0.7071 -0.7071 1962.7426 5429.0781)" class="st5" width="428.5" height="428.5"/>
	
		<rect x="-357.3" y="2300.8" transform="matrix(-0.7071 0.7071 -0.7071 -0.7071 1534.2504 4394.6064)" class="st5" width="428.5" height="428.5"/>
	
		<rect x="400.2" y="1543.3" transform="matrix(-0.7071 0.7071 -0.7071 -0.7071 2291.7246 2565.9019)" class="st5" width="428.5" height="428.5"/>
	
		<rect x="-205.8" y="1417.8" transform="matrix(-0.7071 0.7071 -0.7071 -0.7071 1471.4991 3511.6299)" class="st1" width="428.5" height="1285.5"/>
	
		<rect x="-357.3" y="660.4" transform="matrix(-0.7071 0.7071 -0.7071 -0.7071 677.266 2325.6633)" class="st5" width="428.5" height="1285.5"/>
	<circle class="st3" cx="160" cy="2818" r="214.2"/>
	<circle class="st3" cx="-597.5" cy="1454.6" r="214.2"/>
	<circle class="st3" cx="8.5" cy="1000.1" r="107.1"/>
</g>
</svg>
