<?xml version="1.0" encoding="utf-8"?>
<!-- Generator: Adobe Illustrator 23.0.3, SVG Export Plug-In . SVG Version: 6.00 Build 0)  -->
<svg version="1.1" id="Layer_1" focusable="false" xmlns="http://www.w3.org/2000/svg" xmlns:xlink="http://www.w3.org/1999/xlink"
	 x="0px" y="0px" viewBox="0 0 161.6 51.3" style="enable-background:new 0 0 161.6 51.3;" xml:space="preserve">
<style type="text/css">
	.st0{fill:#FBC403;}
	.st1{fill:#FBFCD4;}
</style>
<path class="st0" d="M73.3,51.3h-11c-3,0-5.5-2.5-5.5-5.5V5.5c0-3,2.5-5.5,5.5-5.5h11c3,0,5.5,2.5,5.5,5.5v40.3
	C78.8,48.8,76.3,51.3,73.3,51.3z M108.1,45.8V5.5c0-3-2.5-5.5-5.5-5.5h-11c-3,0-5.5,2.5-5.5,5.5v40.3c0,3,2.5,5.5,5.5,5.5h11
	C105.6,51.3,108.1,48.8,108.1,45.8z"/>
<path class="st1" d="M161.6,13.5v24.3c0,0.4-0.3,0.7-0.7,0.7h-2.7c-0.4,0-0.7-0.3-0.7-0.7V27.7L146.3,38c-1.2,1-3,0.2-3-1.4v-22
	c0-1.6,1.8-2.4,3-1.4l11.2,10.3v-10c0-0.4,0.3-0.7,0.7-0.7h2.7C161.3,12.8,161.6,13.1,161.6,13.5z"/>
<path class="st1" d="M0,37.8l0-24.3c0-0.4,0.3-0.7,0.7-0.7h2.7c0.4,0,0.7,0.3,0.7,0.7v10.1l11.2-10.4c1.2-1,3-0.2,3,1.4v22
	c0,1.6-1.8,2.4-3,1.4L4.1,27.7v10c0,0.4-0.3,0.7-0.7,0.7H0.7C0.3,38.5,0,38.2,0,37.8z"/>
</svg>
