<?xml version="1.0" encoding="utf-8"?>
<!-- Generator: Adobe Illustrator 23.0.3, SVG Export Plug-In . SVG Version: 6.00 Build 0)  -->
<svg version="1.1" id="Layer_1" focusable="false" xmlns="http://www.w3.org/2000/svg" xmlns:xlink="http://www.w3.org/1999/xlink"
	 x="0px" y="0px" viewBox="0 0 51.3 51.3" style="enable-background:new 0 0 51.3 51.3;" xml:space="preserve">
<style type="text/css">
	.st0{fill:#FBC403;}
</style>
<path class="st0" d="M16.5,51.3h-11c-3,0-5.5-2.5-5.5-5.5V5.5C0,2.5,2.5,0,5.5,0h11c3,0,5.5,2.5,5.5,5.5v40.3
	C22,48.8,19.5,51.3,16.5,51.3z M51.3,45.8V5.5c0-3-2.5-5.5-5.5-5.5h-11c-3,0-5.5,2.5-5.5,5.5v40.3c0,3,2.5,5.5,5.5,5.5h11
	C48.8,51.3,51.3,48.8,51.3,45.8z"/>
</svg>
