<?xml version="1.0" encoding="utf-8"?>
<!-- Generator: Adobe Illustrator 22.1.0, SVG Export Plug-In . SVG Version: 6.00 Build 0)  -->
<svg version="1.1" id="Layer_1" xmlns="http://www.w3.org/2000/svg" xmlns:xlink="http://www.w3.org/1999/xlink" x="0px" y="0px"
	 viewBox="0 0 216 308.3" style="enable-background:new 0 0 216 308.3;" xml:space="preserve">
<style type="text/css">
	.st0{fill:#151515;}
	.st1{fill:#FFFFFF;}
	.st2{fill:#FFC600;}
</style>
<g>
	<g>
		<g>
			<path class="st0" d="M215.7,116.8C215.7,116.7,215.7,116.7,215.7,116.8C215.7,116.7,215.7,116.7,215.7,116.8
				c0.2-2.9,0.3-5.8,0.3-8.8C216,48.3,167.7,0,108,0S0,48.3,0,108c0,0.6,0,1.3,0,1.9c0,1.5,0.1,3.1,0.2,4.6v0c0,0.2,0,0.5,0,0.7
				v86.5c0,3.8,3.1,7,6.9,7c3.4,0,6.2-2.5,6.8-5.7c0.1-0.4,0.1-0.8,0.1-1.3v-40.4v-0.1c0,0,0,0,0,0c0.6-2.9,3.2-5.2,6.4-5.2
				c1.8,0,3.4,0.7,4.6,1.9c0.6,0.6,1.1,1.4,1.5,2.3v18.5c0,0,0,0,0.1,0.1v51.2c0,0.8,0.2,1.7,0.4,2.4c1,2.7,3.6,4.5,6.6,4.5
				c3.9,0,7-3.1,7-7v-37.8c0,0,0,0,0,0v-34c0-3.8,3.1-7,7-7c1.9,0,3.6,0.8,4.9,2c1.2,1.2,2,3,2,4.9v23.5c0,0.2,0,0.3,0,0.5v43.7
				c0,3.8,3.1,6.9,6.9,6.9h0.4c3.8,0,6.9-3.1,6.9-6.9v-43.7c0-0.2,0-0.4,0-0.6v-1.6c0-3.3,2.7-6.1,6.1-6.1c1.7,0,3.2,0.7,4.3,1.8
				c1.1,1.1,1.8,2.6,1.8,4.3v32.4v49c0,3.4,3.2,6.1,7.1,6.1c3.9,0,7.1-2.7,7.1-6.1V194c0.3-3.6,3.3-6.3,6.9-6.3c1.9,0,3.6,0.8,4.9,2
				c1,1,1.7,2.4,1.9,3.9v62.4c0,3.8,3.1,6.9,6.9,6.9h1c3.8,0,6.9-3.1,6.9-6.9v-43.3c0.3-3.6,3.3-6.4,6.9-6.4c1.9,0,3.7,0.8,4.9,2
				c0.9,0.9,1.5,2,1.8,3.3v56.7c0,3.8,3.1,6.9,6.9,6.9h0.9c3.8,0,6.9-3.1,6.9-6.9v-89.7c0.3-3.5,3.3-6.3,6.9-6.3
				c1.9,0,3.6,0.8,4.9,2c1.2,1.2,2,3,2,4.9v7.2c0,0.3-0.1,0.7-0.1,1v113.9c0,3.8,3.1,6.9,6.9,6.9h0.4c3.8,0,6.9-3.1,6.9-6.9V188.2
				c0.1-0.1,0.1-0.1,0.2-0.2v-37.8c0-5.8,4.7-10.6,10.6-10.6c2.9,0,5.6,1.2,7.5,3.1c1.7,1.7,2.8,3.9,3,6.4v84.9
				c0,3.8,3.1,6.9,6.9,6.9h0.2c3.8,0,6.9-3.1,6.9-6.9V117.1C215.7,117,215.7,116.9,215.7,116.8C215.6,116.8,215.6,116.8,215.7,116.8
				z"/>
		</g>
		<g>
			<path class="st0" d="M6.9,216.2c-3.8,0-6.9,3.1-6.9,6.9v6.9c0,3.8,3.1,6.9,6.9,6.9s6.9-3.1,6.9-6.9v-6.9
				C13.9,219.3,10.8,216.2,6.9,216.2z"/>
		</g>
		<g>
			<path class="st0" d="M61.6,236.4L61.6,236.4c-3.8,0-6.9,3.1-6.9,6.9v8c0,3.8,3.1,6.9,6.9,6.9h0c3.8,0,6.9-3.1,6.9-6.9v-8
				C68.6,239.5,65.4,236.4,61.6,236.4z"/>
		</g>
		<g>
			<path class="st0" d="M33.4,242.7c-3,0-5.5,1.9-6.5,4.5c-0.3,0.8-0.4,1.6-0.4,2.4v4.2v2.7c0,3.8,3.1,6.9,6.9,6.9
				c3.8,0,7-3.1,7-6.9v-7c0-1.9-0.8-3.7-2-4.9C37.1,243.5,35.4,242.7,33.4,242.7z"/>
		</g>
		<g>
			<path class="st0" d="M116.3,265.6c-3.8,0-6.9,3.1-6.9,6.9v6.9c0,3.8,3.1,6.9,6.9,6.9c3.8,0,6.9-3.1,6.9-6.9v-6.9
				C123.3,268.7,120.2,265.6,116.3,265.6z"/>
		</g>
	</g>
	<g>
		<path class="st1" d="M76.2,116.2c-1.8-22.1,5.2-36.2,20.4-43c2-3.3,2.9-7.2,2.6-11.7c0.9-9.5-15.9-4.1-18-0.5
			c-8.1,5.7-16.3,7.7-17.7-1.8l2.7-24.5c-1.7-5.5-5.3-7.8-12.4-4.2c-8.1,7.2-15.3,12.7-18.4,9.2C23.5,53.5,14.7,69.3,11.9,88.9
			c3.7,1.4,6.5,4.4,6.5,12.1c2.5,19.6,8.3,23.3,17.6,10c11.1-19.7,18.5-20.3,21.7,1.4C61.7,129.4,67.6,132.2,76.2,116.2z"/>
		<path class="st0" d="M66.2,127.3c-0.2,0-0.4,0-0.5,0c-3.5-0.4-6.2-5.3-8.5-14.8c-1.5-9.9-3.8-15.2-6.9-15.8
			c-3.4-0.6-8.1,4.3-13.8,14.5c-4.3,6.1-7.8,8.7-10.8,8c-3.7-0.9-6.2-6.9-7.7-18.2c0-8.3-3.3-10.6-6.1-11.7l-0.4-0.1l0.1-0.4
			C14,71,21.7,54.8,35,39.3l0.4-0.4l0.4,0.4c0.5,0.6,1.1,0.9,1.9,0.9c3.7,0.2,10-5,15.8-10.1l0.1-0.1c3.6-1.8,6.5-2.2,8.7-1.2
			c2,0.9,3.4,2.7,4.4,5.8l0,0.1L64,59.2c0.5,3,1.6,4.9,3.5,5.7c2.9,1.3,7.7-0.2,13.4-4.2c1.7-2.7,10.5-6.2,15.4-4.6
			c1.7,0.5,3.7,1.9,3.4,5.5c0.3,4.5-0.6,8.6-2.7,12l-0.1,0.1l-0.1,0.1c-15.1,6.7-21.9,21-20.1,42.5l0,0.1l-0.1,0.1
			C72.7,123.7,69.3,127.3,66.2,127.3z M49.6,95.6c0.3,0,0.5,0,0.8,0.1c3.6,0.7,6.2,6.1,7.7,16.6c2.1,8.9,4.7,13.6,7.7,13.9
			c2.8,0.4,6.1-3.1,9.9-10.2c-1.8-21.8,5.2-36.3,20.6-43.3c1.9-3.2,2.7-7,2.4-11.3c0.2-2.4-0.7-3.9-2.7-4.5
			c-4.4-1.4-13,1.9-14.3,4.3l-0.1,0.2c-4.3,3-10.3,6.2-14.4,4.4c-2.2-0.9-3.6-3.1-4.1-6.5l0-0.1l2.7-24.5c-0.9-2.7-2.1-4.3-3.8-5
			c-1.9-0.8-4.6-0.4-7.8,1.2c-6.2,5.5-12.4,10.6-16.5,10.4c-0.9-0.1-1.6-0.3-2.2-0.9C22.6,55.4,15,71.2,12.5,88.6
			c4.4,1.8,6.4,5.8,6.4,12.4c1.4,10.7,3.7,16.5,6.9,17.3c2.5,0.6,5.8-1.9,9.8-7.6C41.2,100.6,45.8,95.6,49.6,95.6z"/>
	</g>
	<g>
		<circle class="st2" cx="108" cy="108" r="27"/>
	</g>
	<g>
		<path class="st0" d="M108,158.8c-28,0-50.8-22.8-50.8-50.8c0-28,22.8-50.8,50.8-50.8c28,0,50.8,22.8,50.8,50.8
			C158.8,136,136,158.8,108,158.8z M108,58.2c-27.5,0-49.8,22.4-49.8,49.8c0,27.5,22.4,49.8,49.8,49.8c27.5,0,49.8-22.4,49.8-49.8
			C157.8,80.5,135.5,58.2,108,58.2z"/>
	</g>
	<g>
		<path class="st0" d="M107.6,161.8c-29.9,0-54.3-24.3-54.3-54.3s24.3-54.3,54.3-54.3s54.3,24.3,54.3,54.3S137.5,161.8,107.6,161.8z
			 M107.6,54.3c-29.4,0-53.3,23.9-53.3,53.3s23.9,53.3,53.3,53.3s53.3-23.9,53.3-53.3S136.9,54.3,107.6,54.3z"/>
	</g>
	<g>
		<path class="st0" d="M108,169.7c-34,0-61.7-27.7-61.7-61.7S74,46.3,108,46.3S169.7,74,169.7,108S142,169.7,108,169.7z M108,47.3
			c-33.5,0-60.7,27.2-60.7,60.7s27.2,60.7,60.7,60.7s60.7-27.2,60.7-60.7S141.5,47.3,108,47.3z"/>
	</g>
</g>
</svg>
